<?xml version="1.0" encoding="utf-8"?>
<!-- Generator: Adobe Illustrator 19.0.0, SVG Export Plug-In . SVG Version: 6.00 Build 0)  -->
<svg version="1.1" id="Layer_1" xmlns="http://www.w3.org/2000/svg" xmlns:xlink="http://www.w3.org/1999/xlink" x="0px" y="0px"
	 viewBox="0 0 277.7 332.4" style="enable-background:new 0 0 277.7 332.4;" xml:space="preserve">
<style type="text/css">
	.st0{fill:url(#XMLID_77_);}
	.st1{fill:url(#XMLID_78_);}
	.st2{stroke:#F47824;stroke-miterlimit:10;}
	.st3{fill:#FFFFFF;stroke:url(#XMLID_96_);stroke-miterlimit:10;}
	.st4{fill:#FFFFFF;stroke:url(#XMLID_97_);stroke-miterlimit:10;}
	.st5{fill:url(#XMLID_98_);}
	.st6{fill:url(#XMLID_99_);}
</style>
<linearGradient id="XMLID_77_" gradientUnits="userSpaceOnUse" x1="260.3805" y1="302.7259" x2="20.832" y2="302.7259">
	<stop  offset="0" style="stop-color:#F7A8B8"/>
	<stop  offset="1" style="stop-color:#F78E43"/>
</linearGradient>
<path id="XMLID_4_" class="st0" d="M140.6,295.4c-50.7,0-94.1-7.8-112.3-19c-3.3-2-7.5,0.4-7.5,4.2v10.5c0,21.4,17.4,38.8,38.8,38.8
	h162c21.4,0,38.8-17.4,38.8-38.8V281c0-4-4.4-6.5-7.8-4.4C234.2,287.6,191,295.4,140.6,295.4z"/>
<linearGradient id="XMLID_78_" gradientUnits="userSpaceOnUse" x1="20.832" y1="199.2764" x2="260.3805" y2="199.2764">
	<stop  offset="0" style="stop-color:#F7A8B8"/>
	<stop  offset="1" style="stop-color:#F78E43"/>
</linearGradient>
<path id="XMLID_8_" class="st1" d="M206.7,169.4H74.5c-29.7,0-53.7,24-53.7,53.7v0c0,3.3,2.7,6.1,6.1,6.1h2.6
	c-2.3-1.5-3.5-2.8-3.5-4c0-7.9,51.3-14.3,114.7-14.3s114.7,6.4,114.7,14.3c0,1.2-1.2,2.6-3.5,4h2.6c3.3,0,6.1-2.7,6.1-6.1v0
	C260.4,193.4,236.3,169.4,206.7,169.4z"/>
<g id="XMLID_96_">
	<path id="XMLID_97_" class="st2" d="M93.8,235.7c0,0.1,0,0.2,0,0.3c0,0.3-0.2,0.6-0.6,0.7c0,0-0.4,0.1-1.2,0.2
		c-1.8,0.3-4,0.5-6.7,0.7c-0.7,1.5-1.7,4.5-3,9.1c2.2-0.2,4.5-0.3,6.7-0.4c0.7,0,1.1,0.2,1.4,0.7c0,0.1,0.1,0.5,0.3,1.2
		c0,0.1,0,0.2,0,0.2c0,0.4-0.5,0.7-1.4,0.8c-0.7,0.1-1,0.2-1.2,0.2c-0.2,0-0.4-0.1-0.5-0.3c-0.2-0.3-0.5-0.5-0.9-0.5
		c-2.6,0-4.2,0-5,0.1c-0.4,1.1-1.2,4-2.2,8.7c-0.2,0.9-0.5,1.3-0.9,1.3c-0.2,0-0.8-0.1-1.5-0.4c-0.5-0.2-0.6-0.7-0.5-1.5
		c0.2-1.1,0.4-2.2,0.7-3.3c0.1-0.5,0.6-0.7,1.4-0.5c0.3-0.6,0.6-1.6,1-2.9c-0.5-1.3-0.7-1.9-0.7-2c0-0.1,0-0.1,0-0.2
		c0.1-0.4,0.7-0.7,1.7-0.9c0.1-0.2,1-3.3,2.9-9.2c-1.9,0.1-3.7,0.4-5.4,0.8c-2,0.5-3.3,1-4,1.6c-0.7,0.6-1,1.2-1,1.8
		c0,0.7,0.4,1.7,1.2,3.2c0.1,0.1,0.1,0.3,0.1,0.4c0,0.3-0.1,0.4-0.4,0.4c-0.2,0-0.4-0.1-0.5-0.3c-0.9-1.3-1.5-2.4-1.8-3.1
		c-0.2-0.5-0.3-1.3-0.4-2.2c-0.1-1.4,1-2.5,3.5-3.2c3.2-0.9,6.5-1.5,9.8-1.8c0.4-0.8,0.7-1.1,0.8-1.1c0.3,0,0.7,0.3,1.4,0.9
		c0.3,0,1.3-0.1,2.8-0.4c0.3,0,0.6-0.3,0.8-0.6c0.3-0.3,0.9-0.5,1.8-0.6c0.5,0,0.9,0.2,1.1,0.6C93.4,234.3,93.5,234.8,93.8,235.7z"
		/>
	<path id="XMLID_99_" class="st2" d="M112.9,238c-0.4,3.7-1.6,7.6-3.6,11.9c-2.6,5.6-5.5,8.5-8.7,8.7c-0.6,0-1.2,0-1.7-0.1
		c-0.6-0.1-0.9-0.3-0.8-0.5c-1.9-0.5-3.3-1-4-1.6c-1-0.9-1.5-2.2-1.4-4c0.1-3.4,1.1-7,3-10.9c1.5-3.1,3-5.3,4.4-6.6
		c0.6-0.6,1.1-0.8,1.7-0.8s1,0.1,1.5,0.4c0.2,0.1,0.9,0.6,2,1.3c0.9-1,1.7-1.7,2.3-2.2c0.4-0.3,0.8-0.4,1.2-0.4c0.7,0,1.3,0.3,1.9,1
		c1,0.1,1.6,0.2,1.9,0.4c0.3,0.2,0.5,0.7,0.5,1.4C113.1,236.4,113,237.1,112.9,238z M110.6,236.5c0.1-0.9-0.1-1.3-0.6-1.3
		c-0.4,0-0.9,0.3-1.7,0.8c-1.7,1.2-3.7,2.9-6.1,5.1c-0.3,0.3-0.5,0.4-0.7,0.4c-0.2,0-0.3-0.1-0.3-0.3c0-0.2,0.1-0.4,0.3-0.7
		c1-1.6,2.1-3,3.1-4.1c-0.6-0.5-1.2-0.7-1.6-0.7c-0.3,0-0.6,0.1-0.8,0.3c-1.3,0.9-2.8,3.1-4.4,6.3c-2,3.9-2.9,7.2-2.7,10.1
		c0.1,1.2,0.3,2.1,0.7,2.7c0.4,0.5,1,1,1.9,1.5c0.7,0.4,1.4,0.5,2.1,0.4c2.4-0.3,4.8-2.7,7.1-7.3C109,245.4,110.3,241,110.6,236.5z"
		/>
	<path id="XMLID_102_" class="st2" d="M133.9,238c-0.4,3.7-1.6,7.6-3.6,11.9c-2.6,5.6-5.5,8.5-8.7,8.7c-0.6,0-1.2,0-1.7-0.1
		c-0.6-0.1-0.9-0.3-0.8-0.5c-1.9-0.5-3.3-1-4-1.6c-1-0.9-1.5-2.2-1.4-4c0.1-3.4,1.1-7,3-10.9c1.5-3.1,3-5.3,4.4-6.6
		c0.6-0.6,1.1-0.8,1.7-0.8s1,0.1,1.5,0.4c0.2,0.1,0.9,0.6,2,1.3c0.9-1,1.7-1.7,2.3-2.2c0.4-0.3,0.8-0.4,1.2-0.4c0.7,0,1.3,0.3,1.9,1
		c1,0.1,1.6,0.2,1.9,0.4c0.3,0.2,0.5,0.7,0.5,1.4C134.1,236.4,134,237.1,133.9,238z M131.6,236.5c0.1-0.9-0.1-1.3-0.6-1.3
		c-0.4,0-0.9,0.3-1.7,0.8c-1.7,1.2-3.7,2.9-6.1,5.1c-0.3,0.3-0.5,0.4-0.7,0.4c-0.2,0-0.3-0.1-0.3-0.3c0-0.2,0.1-0.4,0.3-0.7
		c1-1.6,2.1-3,3.1-4.1c-0.6-0.5-1.2-0.7-1.6-0.7c-0.3,0-0.6,0.1-0.8,0.3c-1.3,0.9-2.8,3.1-4.4,6.3c-2,3.9-2.9,7.2-2.7,10.1
		c0.1,1.2,0.3,2.1,0.7,2.7c0.4,0.5,1,1,1.9,1.5c0.7,0.4,1.4,0.5,2.1,0.4c2.4-0.3,4.8-2.7,7.1-7.3C130,245.4,131.3,241,131.6,236.5z"
		/>
	<path id="XMLID_105_" class="st2" d="M156.7,239.2c-0.4,2.7-1.2,5.7-2.6,8.8c-1.3,2.9-2.7,5.3-4.2,7.4c-1.5,2-2.8,3.1-3.7,3.1
		c-1.2,0-2.8-0.7-5-2.2c-0.2-0.1-0.2-0.3-0.2-0.4c0-0.4,0.2-0.6,0.7-0.6c0.1,0,0.2,0,0.4,0.1c0.9,0.6,1.9,0.9,2.9,0.9
		c1.5,0.1,3.3-2.1,5.6-6.5c2.3-4.3,3.6-8.2,3.9-11.5c0.1-1.1-0.5-1.9-1.8-2.4c-0.3-0.1-0.6-0.2-0.8-0.1c-2.3,0.3-4.4,1.1-6.6,2.5
		c-1.1,2.6-2.2,5.7-3.3,9.3c-1.2,3.9-2.1,7.3-2.7,10.2c-0.1,0.6-0.4,0.9-0.7,0.9c-0.1,0-0.3,0-0.5-0.1c-0.6-0.3-1-0.6-1.2-0.8
		c-0.3-0.3-0.4-0.6-0.4-1.1c0-1,0.2-2.2,0.5-3.5c0.1-0.3,0.2-0.5,0.4-0.5c0.2,0,0.6,0.3,1.2,0.8c1.6-5.4,3.1-10.1,4.5-13.9
		c-2.6,1.6-4.6,3.2-6,4.7c-0.3,0.4-0.5,0.8-0.5,1.3c0,0.4,0.1,0.9,0.4,1.5s0.4,0.9,0.4,0.9c0,0.2-0.1,0.3-0.4,0.3
		c-0.2,0-0.4-0.1-0.5-0.2c-1.5-1.7-2.2-2.9-2.2-3.6c0-0.7,0.5-1.5,1.4-2.3c2-1.8,4.9-3.8,8.6-5.9c0.6-1.5,1.1-2.2,1.4-2.2
		c0.2,0,0.6,0.3,1.3,0.9c0.6-0.3,1.3-0.6,1.9-0.9c0.5-0.2,1-0.4,1.3-0.4c0.6,0,1.3,0.3,2.3,0.9c0,0,0.1-0.1,0.2-0.1
		c0.7,0,1.7,0.6,3,1.8c0.7,0.7,1.1,1.4,1.1,2.2C156.7,238.8,156.7,239,156.7,239.2z"/>
	<path id="XMLID_107_" class="st2" d="M170.9,240.1c-0.4,3.4-1.5,7.2-3.2,11.4c-2.1,4.9-4,7.4-6,7.4c-1.2,0-2.6-0.6-4.2-1.9
		c-0.1-0.1-0.2-0.2-0.2-0.4c0-0.4,0.2-0.6,0.6-0.6c0.1,0,0.2,0,0.3,0.1c1,0.5,1.9,0.8,2.6,0.8c1.6,0,3.3-2.3,5.2-6.9
		c1.8-4.5,2.8-8.6,2.9-12.1c0-1.2-0.5-1.7-1.7-1.7c-0.2,0-0.4,0-0.6,0.1c-0.9,0.1-2,0.9-3.1,2.2c-1.3,1.5-2.2,3.2-2.7,5
		c-0.1,0.2-0.1,0.5-0.1,0.7c0,0.4,0.1,0.8,0.4,1.2c0.3,0.3,0.5,0.5,0.8,0.8c0.1,0.1,0.2,0.2,0.2,0.4c0,0.2-0.2,0.3-0.5,0.3
		c-0.1,0-0.3,0-0.4-0.1c-1-0.6-1.7-1.1-2.1-1.5c-0.4-0.5-0.7-1-0.7-1.6c0-0.6,0.2-1.3,0.6-2.3c0.6-1.4,1.5-2.8,2.7-4.2
		c1.1-1.3,2.2-2.1,3.1-2.5c0.4-0.2,1.3-0.1,2.6,0.3c0.1-0.1,0.2-0.2,0.4-0.2c0.5,0,1.4,0.4,2.7,1.3
		C170.9,236.6,171.1,237.9,170.9,240.1z"/>
	<path id="XMLID_109_" class="st2" d="M195.3,235.7c0,0.1,0,0.2,0,0.3c0,0.3-0.2,0.6-0.6,0.7c0,0-0.4,0.1-1.2,0.2
		c-1.8,0.3-4,0.5-6.7,0.7c-0.7,1.5-1.7,4.5-3,9.1c2.2-0.2,4.5-0.3,6.7-0.4c0.7,0,1.1,0.2,1.4,0.7c0,0.1,0.1,0.5,0.3,1.2
		c0,0.1,0,0.2,0,0.2c0,0.4-0.5,0.7-1.4,0.8c-0.7,0.1-1,0.2-1.2,0.2c-0.2,0-0.4-0.1-0.5-0.3c-0.2-0.3-0.5-0.5-0.9-0.5
		c-2.6,0-4.2,0-5,0.1c-0.4,1.1-1.2,4-2.2,8.7c-0.2,0.9-0.5,1.3-0.9,1.3c-0.2,0-0.8-0.1-1.5-0.4c-0.5-0.2-0.6-0.7-0.5-1.5
		c0.2-1.1,0.4-2.2,0.7-3.3c0.1-0.5,0.6-0.7,1.4-0.5c0.3-0.6,0.6-1.6,1-2.9c-0.5-1.3-0.7-1.9-0.7-2c0-0.1,0-0.1,0-0.2
		c0.1-0.4,0.7-0.7,1.7-0.9c0.1-0.2,1-3.3,2.9-9.2c-1.9,0.1-3.7,0.4-5.4,0.8c-2,0.5-3.3,1-4,1.6c-0.7,0.6-1,1.2-1,1.8
		c0,0.7,0.4,1.7,1.2,3.2c0.1,0.1,0.1,0.3,0.1,0.4c0,0.3-0.1,0.4-0.4,0.4c-0.2,0-0.4-0.1-0.5-0.3c-0.9-1.3-1.5-2.4-1.8-3.1
		c-0.2-0.5-0.3-1.3-0.4-2.2c-0.1-1.4,1-2.5,3.5-3.2c3.2-0.9,6.5-1.5,9.8-1.8c0.4-0.8,0.7-1.1,0.8-1.1c0.3,0,0.7,0.3,1.4,0.9
		c0.3,0,1.3-0.1,2.8-0.4c0.3,0,0.6-0.3,0.8-0.6c0.3-0.3,0.9-0.5,1.8-0.6c0.5,0,0.9,0.2,1.1,0.6C194.9,234.3,195.1,234.8,195.3,235.7
		z"/>
	<path id="XMLID_111_" class="st2" d="M218.6,235.9c0.2,0.2,0.2,0.4,0.2,0.6c0,0.6-0.7,1.9-2.1,3.9c-0.3,0.8-1.3,3.8-2.8,8.8
		c-1.5,4.9-2.6,8.4-3.4,10.3c-0.5,1.3-0.9,2.1-1.3,2.5c-0.4,0.6-0.9,0.9-1.4,0.9c-0.8,0-2.3-0.8-4.6-2.4c-0.3-0.2-0.4-0.4-0.4-0.5
		c0-0.3,0.2-0.4,0.6-0.4c0.1,0,0.3,0,0.4,0.1c1.2,0.5,2,0.7,2.3,0.7c0.7,0,1.2-0.5,1.7-1.4c2.2-3.9,4.1-8.8,5.7-14.7
		c-2.2,3.9-4.7,7.2-7.3,9.9c-0.7,0.7-1.3,1.1-1.7,1.1c-0.4,0-0.8-0.3-1.3-0.8c-1.3-0.8-2.1-1.4-2.4-1.7c-0.4-0.5-0.6-1.4-0.5-2.7
		c0.1-2.5,1.3-6.7,3.6-12.3c-2.8,1-4.9,2.1-6.2,3.1c-0.6,0.5-0.9,0.9-0.9,1.4c0,0,0.2,0.7,0.6,1.9c0,0.1,0,0.1,0,0.2
		c0,0.2-0.1,0.3-0.3,0.3c-0.3,0-0.6-0.2-0.9-0.6c-1.1-1.7-1.6-2.9-1.6-3.6c0-0.9,0.6-1.6,1.9-2c2.3-0.7,5.1-1.7,8.6-2.8
		c0.5-0.9,1-1.4,1.5-1.4c0.5,0,1.2,0.4,2.2,1.3c0.2,0.1,0.2,0.3,0.2,0.4c0,0.3-0.5,0.5-1.6,0.8c-1.4,2-2.6,4.5-3.6,7.7
		c-0.8,2.8-1.3,5-1.3,6.7c0,1.7,0.5,2.5,1.4,2.5c0.4,0,0.9-0.2,1.3-0.7c4.2-4.2,7.8-9.5,10.9-15.9c0.3-1.2,0.7-1.8,1.2-1.8
		C217.7,235,218.1,235.3,218.6,235.9z"/>
</g>
<g id="XMLID_79_">
	<path id="XMLID_80_" class="st2" d="M93.8,235.7c0,0.1,0,0.2,0,0.3c0,0.3-0.2,0.6-0.6,0.7c0,0-0.4,0.1-1.2,0.2
		c-1.8,0.3-4,0.5-6.7,0.7c-0.7,1.5-1.7,4.5-3,9.1c2.2-0.2,4.5-0.3,6.7-0.4c0.7,0,1.1,0.2,1.4,0.7c0,0.1,0.1,0.5,0.3,1.2
		c0,0.1,0,0.2,0,0.2c0,0.4-0.5,0.7-1.4,0.8c-0.7,0.1-1,0.2-1.2,0.2c-0.2,0-0.4-0.1-0.5-0.3c-0.2-0.3-0.5-0.5-0.9-0.5
		c-2.6,0-4.2,0-5,0.1c-0.4,1.1-1.2,4-2.2,8.7c-0.2,0.9-0.5,1.3-0.9,1.3c-0.2,0-0.8-0.1-1.5-0.4c-0.5-0.2-0.6-0.7-0.5-1.5
		c0.2-1.1,0.4-2.2,0.7-3.3c0.1-0.5,0.6-0.7,1.4-0.5c0.3-0.6,0.6-1.6,1-2.9c-0.5-1.3-0.7-1.9-0.7-2c0-0.1,0-0.1,0-0.2
		c0.1-0.4,0.7-0.7,1.7-0.9c0.1-0.2,1-3.3,2.9-9.2c-1.9,0.1-3.7,0.4-5.4,0.8c-2,0.5-3.3,1-4,1.6c-0.7,0.6-1,1.2-1,1.8
		c0,0.7,0.4,1.7,1.2,3.2c0.1,0.1,0.1,0.3,0.1,0.4c0,0.3-0.1,0.4-0.4,0.4c-0.2,0-0.4-0.1-0.5-0.3c-0.9-1.3-1.5-2.4-1.8-3.1
		c-0.2-0.5-0.3-1.3-0.4-2.2c-0.1-1.4,1-2.5,3.5-3.2c3.2-0.9,6.5-1.5,9.8-1.8c0.4-0.8,0.7-1.1,0.8-1.1c0.3,0,0.7,0.3,1.4,0.9
		c0.3,0,1.3-0.1,2.8-0.4c0.3,0,0.6-0.3,0.8-0.6c0.3-0.3,0.9-0.5,1.8-0.6c0.5,0,0.9,0.2,1.1,0.6C93.4,234.3,93.5,234.8,93.8,235.7z"
		/>
	<path id="XMLID_82_" class="st2" d="M112.9,238c-0.4,3.7-1.6,7.6-3.6,11.9c-2.6,5.6-5.5,8.5-8.7,8.7c-0.6,0-1.2,0-1.7-0.1
		c-0.6-0.1-0.9-0.3-0.8-0.5c-1.9-0.5-3.3-1-4-1.6c-1-0.9-1.5-2.2-1.4-4c0.1-3.4,1.1-7,3-10.9c1.5-3.1,3-5.3,4.4-6.6
		c0.6-0.6,1.1-0.8,1.7-0.8s1,0.1,1.5,0.4c0.2,0.1,0.9,0.6,2,1.3c0.9-1,1.7-1.7,2.3-2.2c0.4-0.3,0.8-0.4,1.2-0.4c0.7,0,1.3,0.3,1.9,1
		c1,0.1,1.6,0.2,1.9,0.4c0.3,0.2,0.5,0.7,0.5,1.4C113.1,236.4,113,237.1,112.9,238z M110.6,236.5c0.1-0.9-0.1-1.3-0.6-1.3
		c-0.4,0-0.9,0.3-1.7,0.8c-1.7,1.2-3.7,2.9-6.1,5.1c-0.3,0.3-0.5,0.4-0.7,0.4c-0.2,0-0.3-0.1-0.3-0.3c0-0.2,0.1-0.4,0.3-0.7
		c1-1.6,2.1-3,3.1-4.1c-0.6-0.5-1.2-0.7-1.6-0.7c-0.3,0-0.6,0.1-0.8,0.3c-1.3,0.9-2.8,3.1-4.4,6.3c-2,3.9-2.9,7.2-2.7,10.1
		c0.1,1.2,0.3,2.1,0.7,2.7c0.4,0.5,1,1,1.9,1.5c0.7,0.4,1.4,0.5,2.1,0.4c2.4-0.3,4.8-2.7,7.1-7.3C109,245.4,110.3,241,110.6,236.5z"
		/>
	<path id="XMLID_85_" class="st2" d="M133.9,238c-0.4,3.7-1.6,7.6-3.6,11.9c-2.6,5.6-5.5,8.5-8.7,8.7c-0.6,0-1.2,0-1.7-0.1
		c-0.6-0.1-0.9-0.3-0.8-0.5c-1.9-0.5-3.3-1-4-1.6c-1-0.9-1.5-2.2-1.4-4c0.1-3.4,1.1-7,3-10.9c1.5-3.1,3-5.3,4.4-6.6
		c0.6-0.6,1.1-0.8,1.7-0.8s1,0.1,1.5,0.4c0.2,0.1,0.9,0.6,2,1.3c0.9-1,1.7-1.7,2.3-2.2c0.4-0.3,0.8-0.4,1.2-0.4c0.7,0,1.3,0.3,1.9,1
		c1,0.1,1.6,0.2,1.9,0.4c0.3,0.2,0.5,0.7,0.5,1.4C134.1,236.4,134,237.1,133.9,238z M131.6,236.5c0.1-0.9-0.1-1.3-0.6-1.3
		c-0.4,0-0.9,0.3-1.7,0.8c-1.7,1.2-3.7,2.9-6.1,5.1c-0.3,0.3-0.5,0.4-0.7,0.4c-0.2,0-0.3-0.1-0.3-0.3c0-0.2,0.1-0.4,0.3-0.7
		c1-1.6,2.1-3,3.1-4.1c-0.6-0.5-1.2-0.7-1.6-0.7c-0.3,0-0.6,0.1-0.8,0.3c-1.3,0.9-2.8,3.1-4.4,6.3c-2,3.9-2.9,7.2-2.7,10.1
		c0.1,1.2,0.3,2.1,0.7,2.7c0.4,0.5,1,1,1.9,1.5c0.7,0.4,1.4,0.5,2.1,0.4c2.4-0.3,4.8-2.7,7.1-7.3C130,245.4,131.3,241,131.6,236.5z"
		/>
	<path id="XMLID_88_" class="st2" d="M156.7,239.2c-0.4,2.7-1.2,5.7-2.6,8.8c-1.3,2.9-2.7,5.3-4.2,7.4c-1.5,2-2.8,3.1-3.7,3.1
		c-1.2,0-2.8-0.7-5-2.2c-0.2-0.1-0.2-0.3-0.2-0.4c0-0.4,0.2-0.6,0.7-0.6c0.1,0,0.2,0,0.4,0.1c0.9,0.6,1.9,0.9,2.9,0.9
		c1.5,0.1,3.3-2.1,5.6-6.5c2.3-4.3,3.6-8.2,3.9-11.5c0.1-1.1-0.5-1.9-1.8-2.4c-0.3-0.1-0.6-0.2-0.8-0.1c-2.3,0.3-4.4,1.1-6.6,2.5
		c-1.1,2.6-2.2,5.7-3.3,9.3c-1.2,3.9-2.1,7.3-2.7,10.2c-0.1,0.6-0.4,0.9-0.7,0.9c-0.1,0-0.3,0-0.5-0.1c-0.6-0.3-1-0.6-1.2-0.8
		c-0.3-0.3-0.4-0.6-0.4-1.1c0-1,0.2-2.2,0.5-3.5c0.1-0.3,0.2-0.5,0.4-0.5c0.2,0,0.6,0.3,1.2,0.8c1.6-5.4,3.1-10.1,4.5-13.9
		c-2.6,1.6-4.6,3.2-6,4.7c-0.3,0.4-0.5,0.8-0.5,1.3c0,0.4,0.1,0.9,0.4,1.5s0.4,0.9,0.4,0.9c0,0.2-0.1,0.3-0.4,0.3
		c-0.2,0-0.4-0.1-0.5-0.2c-1.5-1.7-2.2-2.9-2.2-3.6c0-0.7,0.5-1.5,1.4-2.3c2-1.8,4.9-3.8,8.6-5.9c0.6-1.5,1.1-2.2,1.4-2.2
		c0.2,0,0.6,0.3,1.3,0.9c0.6-0.3,1.3-0.6,1.9-0.9c0.5-0.2,1-0.4,1.3-0.4c0.6,0,1.3,0.3,2.3,0.9c0,0,0.1-0.1,0.2-0.1
		c0.7,0,1.7,0.6,3,1.8c0.7,0.7,1.1,1.4,1.1,2.2C156.7,238.8,156.7,239,156.7,239.2z"/>
	<path id="XMLID_90_" class="st2" d="M170.9,240.1c-0.4,3.4-1.5,7.2-3.2,11.4c-2.1,4.9-4,7.4-6,7.4c-1.2,0-2.6-0.6-4.2-1.9
		c-0.1-0.1-0.2-0.2-0.2-0.4c0-0.4,0.2-0.6,0.6-0.6c0.1,0,0.2,0,0.3,0.1c1,0.5,1.9,0.8,2.6,0.8c1.6,0,3.3-2.3,5.2-6.9
		c1.8-4.5,2.8-8.6,2.9-12.1c0-1.2-0.5-1.7-1.7-1.7c-0.2,0-0.4,0-0.6,0.1c-0.9,0.1-2,0.9-3.1,2.2c-1.3,1.5-2.2,3.2-2.7,5
		c-0.1,0.2-0.1,0.5-0.1,0.7c0,0.4,0.1,0.8,0.4,1.2c0.3,0.3,0.5,0.5,0.8,0.8c0.1,0.1,0.2,0.2,0.2,0.4c0,0.2-0.2,0.3-0.5,0.3
		c-0.1,0-0.3,0-0.4-0.1c-1-0.6-1.7-1.1-2.1-1.5c-0.4-0.5-0.7-1-0.7-1.6c0-0.6,0.2-1.3,0.6-2.3c0.6-1.4,1.5-2.8,2.7-4.2
		c1.1-1.3,2.2-2.1,3.1-2.5c0.4-0.2,1.3-0.1,2.6,0.3c0.1-0.1,0.2-0.2,0.4-0.2c0.5,0,1.4,0.4,2.7,1.3
		C170.9,236.6,171.1,237.9,170.9,240.1z"/>
	<path id="XMLID_92_" class="st2" d="M195.3,235.7c0,0.1,0,0.2,0,0.3c0,0.3-0.2,0.6-0.6,0.7c0,0-0.4,0.1-1.2,0.2
		c-1.8,0.3-4,0.5-6.7,0.7c-0.7,1.5-1.7,4.5-3,9.1c2.2-0.2,4.5-0.3,6.7-0.4c0.7,0,1.1,0.2,1.4,0.7c0,0.1,0.1,0.5,0.3,1.2
		c0,0.1,0,0.2,0,0.2c0,0.4-0.5,0.7-1.4,0.8c-0.7,0.1-1,0.2-1.2,0.2c-0.2,0-0.4-0.1-0.5-0.3c-0.2-0.3-0.5-0.5-0.9-0.5
		c-2.6,0-4.2,0-5,0.1c-0.4,1.1-1.2,4-2.2,8.7c-0.2,0.9-0.5,1.3-0.9,1.3c-0.2,0-0.8-0.1-1.5-0.4c-0.5-0.2-0.6-0.7-0.5-1.5
		c0.2-1.1,0.4-2.2,0.7-3.3c0.1-0.5,0.6-0.7,1.4-0.5c0.3-0.6,0.6-1.6,1-2.9c-0.5-1.3-0.7-1.9-0.7-2c0-0.1,0-0.1,0-0.2
		c0.1-0.4,0.7-0.7,1.7-0.9c0.1-0.2,1-3.3,2.9-9.2c-1.9,0.1-3.7,0.4-5.4,0.8c-2,0.5-3.3,1-4,1.6c-0.7,0.6-1,1.2-1,1.8
		c0,0.7,0.4,1.7,1.2,3.2c0.1,0.1,0.1,0.3,0.1,0.4c0,0.3-0.1,0.4-0.4,0.4c-0.2,0-0.4-0.1-0.5-0.3c-0.9-1.3-1.5-2.4-1.8-3.1
		c-0.2-0.5-0.3-1.3-0.4-2.2c-0.1-1.4,1-2.5,3.5-3.2c3.2-0.9,6.5-1.5,9.8-1.8c0.4-0.8,0.7-1.1,0.8-1.1c0.3,0,0.7,0.3,1.4,0.9
		c0.3,0,1.3-0.1,2.8-0.4c0.3,0,0.6-0.3,0.8-0.6c0.3-0.3,0.9-0.5,1.8-0.6c0.5,0,0.9,0.2,1.1,0.6C194.9,234.3,195.1,234.8,195.3,235.7
		z"/>
	<path id="XMLID_94_" class="st2" d="M218.6,235.9c0.2,0.2,0.2,0.4,0.2,0.6c0,0.6-0.7,1.9-2.1,3.9c-0.3,0.8-1.3,3.8-2.8,8.8
		c-1.5,4.9-2.6,8.4-3.4,10.3c-0.5,1.3-0.9,2.1-1.3,2.5c-0.4,0.6-0.9,0.9-1.4,0.9c-0.8,0-2.3-0.8-4.6-2.4c-0.3-0.2-0.4-0.4-0.4-0.5
		c0-0.3,0.2-0.4,0.6-0.4c0.1,0,0.3,0,0.4,0.1c1.2,0.5,2,0.7,2.3,0.7c0.7,0,1.2-0.5,1.7-1.4c2.2-3.9,4.1-8.8,5.7-14.7
		c-2.2,3.9-4.7,7.2-7.3,9.9c-0.7,0.7-1.3,1.1-1.7,1.1c-0.4,0-0.8-0.3-1.3-0.8c-1.3-0.8-2.1-1.4-2.4-1.7c-0.4-0.5-0.6-1.4-0.5-2.7
		c0.1-2.5,1.3-6.7,3.6-12.3c-2.8,1-4.9,2.1-6.2,3.1c-0.6,0.5-0.9,0.9-0.9,1.4c0,0,0.2,0.7,0.6,1.9c0,0.1,0,0.1,0,0.2
		c0,0.2-0.1,0.3-0.3,0.3c-0.3,0-0.6-0.2-0.9-0.6c-1.1-1.7-1.6-2.9-1.6-3.6c0-0.9,0.6-1.6,1.9-2c2.3-0.7,5.1-1.7,8.6-2.8
		c0.5-0.9,1-1.4,1.5-1.4c0.5,0,1.2,0.4,2.2,1.3c0.2,0.1,0.2,0.3,0.2,0.4c0,0.3-0.5,0.5-1.6,0.8c-1.4,2-2.6,4.5-3.6,7.7
		c-0.8,2.8-1.3,5-1.3,6.7c0,1.7,0.5,2.5,1.4,2.5c0.4,0,0.9-0.2,1.3-0.7c4.2-4.2,7.8-9.5,10.9-15.9c0.3-1.2,0.7-1.8,1.2-1.8
		C217.7,235,218.1,235.3,218.6,235.9z"/>
</g>
<g id="XMLID_5_">
	<path id="XMLID_61_" class="st2" d="M93.8,235.7c0,0.1,0,0.2,0,0.3c0,0.3-0.2,0.6-0.6,0.7c0,0-0.4,0.1-1.2,0.2
		c-1.8,0.3-4,0.5-6.7,0.7c-0.7,1.5-1.7,4.5-3,9.1c2.2-0.2,4.5-0.3,6.7-0.4c0.7,0,1.1,0.2,1.4,0.7c0,0.1,0.1,0.5,0.3,1.2
		c0,0.1,0,0.2,0,0.2c0,0.4-0.5,0.7-1.4,0.8c-0.7,0.1-1,0.2-1.2,0.2c-0.2,0-0.4-0.1-0.5-0.3c-0.2-0.3-0.5-0.5-0.9-0.5
		c-2.6,0-4.2,0-5,0.1c-0.4,1.1-1.2,4-2.2,8.7c-0.2,0.9-0.5,1.3-0.9,1.3c-0.2,0-0.8-0.1-1.5-0.4c-0.5-0.2-0.6-0.7-0.5-1.5
		c0.2-1.1,0.4-2.2,0.7-3.3c0.1-0.5,0.6-0.7,1.4-0.5c0.3-0.6,0.6-1.6,1-2.9c-0.5-1.3-0.7-1.9-0.7-2c0-0.1,0-0.1,0-0.2
		c0.1-0.4,0.7-0.7,1.7-0.9c0.1-0.2,1-3.3,2.9-9.2c-1.9,0.1-3.7,0.4-5.4,0.8c-2,0.5-3.3,1-4,1.6c-0.7,0.6-1,1.2-1,1.8
		c0,0.7,0.4,1.7,1.2,3.2c0.1,0.1,0.1,0.3,0.1,0.4c0,0.3-0.1,0.4-0.4,0.4c-0.2,0-0.4-0.1-0.5-0.3c-0.9-1.3-1.5-2.4-1.8-3.1
		c-0.2-0.5-0.3-1.3-0.4-2.2c-0.1-1.4,1-2.5,3.5-3.2c3.2-0.9,6.5-1.5,9.8-1.8c0.4-0.8,0.7-1.1,0.8-1.1c0.3,0,0.7,0.3,1.4,0.9
		c0.3,0,1.3-0.1,2.8-0.4c0.3,0,0.6-0.3,0.8-0.6c0.3-0.3,0.9-0.5,1.8-0.6c0.5,0,0.9,0.2,1.1,0.6C93.4,234.3,93.5,234.8,93.8,235.7z"
		/>
	<path id="XMLID_63_" class="st2" d="M112.9,238c-0.4,3.7-1.6,7.6-3.6,11.9c-2.6,5.6-5.5,8.5-8.7,8.7c-0.6,0-1.2,0-1.7-0.1
		c-0.6-0.1-0.9-0.3-0.8-0.5c-1.9-0.5-3.3-1-4-1.6c-1-0.9-1.5-2.2-1.4-4c0.1-3.4,1.1-7,3-10.9c1.5-3.1,3-5.3,4.4-6.6
		c0.6-0.6,1.1-0.8,1.7-0.8s1,0.1,1.5,0.4c0.2,0.1,0.9,0.6,2,1.3c0.9-1,1.7-1.7,2.3-2.2c0.4-0.3,0.8-0.4,1.2-0.4c0.7,0,1.3,0.3,1.9,1
		c1,0.1,1.6,0.2,1.9,0.4c0.3,0.2,0.5,0.7,0.5,1.4C113.1,236.4,113,237.1,112.9,238z M110.6,236.5c0.1-0.9-0.1-1.3-0.6-1.3
		c-0.4,0-0.9,0.3-1.7,0.8c-1.7,1.2-3.7,2.9-6.1,5.1c-0.3,0.3-0.5,0.4-0.7,0.4c-0.2,0-0.3-0.1-0.3-0.3c0-0.2,0.1-0.4,0.3-0.7
		c1-1.6,2.1-3,3.1-4.1c-0.6-0.5-1.2-0.7-1.6-0.7c-0.3,0-0.6,0.1-0.8,0.3c-1.3,0.9-2.8,3.1-4.4,6.3c-2,3.9-2.9,7.2-2.7,10.1
		c0.1,1.2,0.3,2.1,0.7,2.7c0.4,0.5,1,1,1.9,1.5c0.7,0.4,1.4,0.5,2.1,0.4c2.4-0.3,4.8-2.7,7.1-7.3C109,245.4,110.3,241,110.6,236.5z"
		/>
	<path id="XMLID_66_" class="st2" d="M133.9,238c-0.4,3.7-1.6,7.6-3.6,11.9c-2.6,5.6-5.5,8.5-8.7,8.7c-0.6,0-1.2,0-1.7-0.1
		c-0.6-0.1-0.9-0.3-0.8-0.5c-1.9-0.5-3.3-1-4-1.6c-1-0.9-1.5-2.2-1.4-4c0.1-3.4,1.1-7,3-10.9c1.5-3.1,3-5.3,4.4-6.6
		c0.6-0.6,1.1-0.8,1.7-0.8s1,0.1,1.5,0.4c0.2,0.1,0.9,0.6,2,1.3c0.9-1,1.7-1.7,2.3-2.2c0.4-0.3,0.8-0.4,1.2-0.4c0.7,0,1.3,0.3,1.9,1
		c1,0.1,1.6,0.2,1.9,0.4c0.3,0.2,0.5,0.7,0.5,1.4C134.1,236.4,134,237.1,133.9,238z M131.6,236.5c0.1-0.9-0.1-1.3-0.6-1.3
		c-0.4,0-0.9,0.3-1.7,0.8c-1.7,1.2-3.7,2.9-6.1,5.1c-0.3,0.3-0.5,0.4-0.7,0.4c-0.2,0-0.3-0.1-0.3-0.3c0-0.2,0.1-0.4,0.3-0.7
		c1-1.6,2.1-3,3.1-4.1c-0.6-0.5-1.2-0.7-1.6-0.7c-0.3,0-0.6,0.1-0.8,0.3c-1.3,0.9-2.8,3.1-4.4,6.3c-2,3.9-2.9,7.2-2.7,10.1
		c0.1,1.2,0.3,2.1,0.7,2.7c0.4,0.5,1,1,1.9,1.5c0.7,0.4,1.4,0.5,2.1,0.4c2.4-0.3,4.8-2.7,7.1-7.3C130,245.4,131.3,241,131.6,236.5z"
		/>
	<path id="XMLID_69_" class="st2" d="M156.7,239.2c-0.4,2.7-1.2,5.7-2.6,8.8c-1.3,2.9-2.7,5.3-4.2,7.4c-1.5,2-2.8,3.1-3.7,3.1
		c-1.2,0-2.8-0.7-5-2.2c-0.2-0.1-0.2-0.3-0.2-0.4c0-0.4,0.2-0.6,0.7-0.6c0.1,0,0.2,0,0.4,0.1c0.9,0.6,1.9,0.9,2.9,0.9
		c1.5,0.1,3.3-2.1,5.6-6.5c2.3-4.3,3.6-8.2,3.9-11.5c0.1-1.1-0.5-1.9-1.8-2.4c-0.3-0.1-0.6-0.2-0.8-0.1c-2.3,0.3-4.4,1.1-6.6,2.5
		c-1.1,2.6-2.2,5.7-3.3,9.3c-1.2,3.9-2.1,7.3-2.7,10.2c-0.1,0.6-0.4,0.9-0.7,0.9c-0.1,0-0.3,0-0.5-0.1c-0.6-0.3-1-0.6-1.2-0.8
		c-0.3-0.3-0.4-0.6-0.4-1.1c0-1,0.2-2.2,0.5-3.5c0.1-0.3,0.2-0.5,0.4-0.5c0.2,0,0.6,0.3,1.2,0.8c1.6-5.4,3.1-10.1,4.5-13.9
		c-2.6,1.6-4.6,3.2-6,4.7c-0.3,0.4-0.5,0.8-0.5,1.3c0,0.4,0.1,0.9,0.4,1.5s0.4,0.9,0.4,0.9c0,0.2-0.1,0.3-0.4,0.3
		c-0.2,0-0.4-0.1-0.5-0.2c-1.5-1.7-2.2-2.9-2.2-3.6c0-0.7,0.5-1.5,1.4-2.3c2-1.8,4.9-3.8,8.6-5.9c0.6-1.5,1.1-2.2,1.4-2.2
		c0.2,0,0.6,0.3,1.3,0.9c0.6-0.3,1.3-0.6,1.9-0.9c0.5-0.2,1-0.4,1.3-0.4c0.6,0,1.3,0.3,2.3,0.9c0,0,0.1-0.1,0.2-0.1
		c0.7,0,1.7,0.6,3,1.8c0.7,0.7,1.1,1.4,1.1,2.2C156.7,238.8,156.7,239,156.7,239.2z"/>
	<path id="XMLID_71_" class="st2" d="M170.9,240.1c-0.4,3.4-1.5,7.2-3.2,11.4c-2.1,4.9-4,7.4-6,7.4c-1.2,0-2.6-0.6-4.2-1.9
		c-0.1-0.1-0.2-0.2-0.2-0.4c0-0.4,0.2-0.6,0.6-0.6c0.1,0,0.2,0,0.3,0.1c1,0.5,1.9,0.8,2.6,0.8c1.6,0,3.3-2.3,5.2-6.9
		c1.8-4.5,2.8-8.6,2.9-12.1c0-1.2-0.5-1.7-1.7-1.7c-0.2,0-0.4,0-0.6,0.1c-0.9,0.1-2,0.9-3.1,2.2c-1.3,1.5-2.2,3.2-2.7,5
		c-0.1,0.2-0.1,0.5-0.1,0.7c0,0.4,0.1,0.8,0.4,1.2c0.3,0.3,0.5,0.5,0.8,0.8c0.1,0.1,0.2,0.2,0.2,0.4c0,0.2-0.2,0.3-0.5,0.3
		c-0.1,0-0.3,0-0.4-0.1c-1-0.6-1.7-1.1-2.1-1.5c-0.4-0.5-0.7-1-0.7-1.6c0-0.6,0.2-1.3,0.6-2.3c0.6-1.4,1.5-2.8,2.7-4.2
		c1.1-1.3,2.2-2.1,3.1-2.5c0.4-0.2,1.3-0.1,2.6,0.3c0.1-0.1,0.2-0.2,0.4-0.2c0.5,0,1.4,0.4,2.7,1.3
		C170.9,236.6,171.1,237.9,170.9,240.1z"/>
	<path id="XMLID_73_" class="st2" d="M195.3,235.7c0,0.1,0,0.2,0,0.3c0,0.3-0.2,0.6-0.6,0.7c0,0-0.4,0.1-1.2,0.2
		c-1.8,0.3-4,0.5-6.7,0.7c-0.7,1.5-1.7,4.5-3,9.1c2.2-0.2,4.5-0.3,6.7-0.4c0.7,0,1.1,0.2,1.4,0.7c0,0.1,0.1,0.5,0.3,1.2
		c0,0.1,0,0.2,0,0.2c0,0.4-0.5,0.7-1.4,0.8c-0.7,0.1-1,0.2-1.2,0.2c-0.2,0-0.4-0.1-0.5-0.3c-0.2-0.3-0.5-0.5-0.9-0.5
		c-2.6,0-4.2,0-5,0.1c-0.4,1.1-1.2,4-2.2,8.7c-0.2,0.9-0.5,1.3-0.9,1.3c-0.2,0-0.8-0.1-1.5-0.4c-0.5-0.2-0.6-0.7-0.5-1.5
		c0.2-1.1,0.4-2.2,0.7-3.3c0.1-0.5,0.6-0.7,1.4-0.5c0.3-0.6,0.6-1.6,1-2.9c-0.5-1.3-0.7-1.9-0.7-2c0-0.1,0-0.1,0-0.2
		c0.1-0.4,0.7-0.7,1.7-0.9c0.1-0.2,1-3.3,2.9-9.2c-1.9,0.1-3.7,0.4-5.4,0.8c-2,0.5-3.3,1-4,1.6c-0.7,0.6-1,1.2-1,1.8
		c0,0.7,0.4,1.7,1.2,3.2c0.1,0.1,0.1,0.3,0.1,0.4c0,0.3-0.1,0.4-0.4,0.4c-0.2,0-0.4-0.1-0.5-0.3c-0.9-1.3-1.5-2.4-1.8-3.1
		c-0.2-0.5-0.3-1.3-0.4-2.2c-0.1-1.4,1-2.5,3.5-3.2c3.2-0.9,6.5-1.5,9.8-1.8c0.4-0.8,0.7-1.1,0.8-1.1c0.3,0,0.7,0.3,1.4,0.9
		c0.3,0,1.3-0.1,2.8-0.4c0.3,0,0.6-0.3,0.8-0.6c0.3-0.3,0.9-0.5,1.8-0.6c0.5,0,0.9,0.2,1.1,0.6C194.9,234.3,195.1,234.8,195.3,235.7
		z"/>
	<path id="XMLID_75_" class="st2" d="M218.6,235.9c0.2,0.2,0.2,0.4,0.2,0.6c0,0.6-0.7,1.9-2.1,3.9c-0.3,0.8-1.3,3.8-2.8,8.8
		c-1.5,4.9-2.6,8.4-3.4,10.3c-0.5,1.3-0.9,2.1-1.3,2.5c-0.4,0.6-0.9,0.9-1.4,0.9c-0.8,0-2.3-0.8-4.6-2.4c-0.3-0.2-0.4-0.4-0.4-0.5
		c0-0.3,0.2-0.4,0.6-0.4c0.1,0,0.3,0,0.4,0.1c1.2,0.5,2,0.7,2.3,0.7c0.7,0,1.2-0.5,1.7-1.4c2.2-3.9,4.1-8.8,5.7-14.7
		c-2.2,3.9-4.7,7.2-7.3,9.9c-0.7,0.7-1.3,1.1-1.7,1.1c-0.4,0-0.8-0.3-1.3-0.8c-1.3-0.8-2.1-1.4-2.4-1.7c-0.4-0.5-0.6-1.4-0.5-2.7
		c0.1-2.5,1.3-6.7,3.6-12.3c-2.8,1-4.9,2.1-6.2,3.1c-0.6,0.5-0.9,0.9-0.9,1.4c0,0,0.2,0.7,0.6,1.9c0,0.1,0,0.1,0,0.2
		c0,0.2-0.1,0.3-0.3,0.3c-0.3,0-0.6-0.2-0.9-0.6c-1.1-1.7-1.6-2.9-1.6-3.6c0-0.9,0.6-1.6,1.9-2c2.3-0.7,5.1-1.7,8.6-2.8
		c0.5-0.9,1-1.4,1.5-1.4c0.5,0,1.2,0.4,2.2,1.3c0.2,0.1,0.2,0.3,0.2,0.4c0,0.3-0.5,0.5-1.6,0.8c-1.4,2-2.6,4.5-3.6,7.7
		c-0.8,2.8-1.3,5-1.3,6.7c0,1.7,0.5,2.5,1.4,2.5c0.4,0,0.9-0.2,1.3-0.7c4.2-4.2,7.8-9.5,10.9-15.9c0.3-1.2,0.7-1.8,1.2-1.8
		C217.7,235,218.1,235.3,218.6,235.9z"/>
</g>
<linearGradient id="XMLID_113_" gradientUnits="userSpaceOnUse" x1="131.5784" y1="86.4015" x2="4.0666" y2="86.4015">
	<stop  offset="0" style="stop-color:#F7A8B8"/>
	<stop  offset="1" style="stop-color:#F78E43"/>
</linearGradient>
<polygon id="XMLID_6_" style="fill:#FFFFFF;stroke:url(#XMLID_113_);stroke-miterlimit:10;" points="61.7,163.4 6.2,104.4 
	61.7,130.8 20.9,65.5 84.6,114.5 67.4,36.8 112.3,100.1 131.1,9 130.4,163.4 "/>
<linearGradient id="XMLID_114_" gradientUnits="userSpaceOnUse" x1="147.4715" y1="86.4015" x2="274.9832" y2="86.4015">
	<stop  offset="0" style="stop-color:#F7A8B8"/>
	<stop  offset="1" style="stop-color:#F78E43"/>
</linearGradient>
<polygon id="XMLID_1_" style="fill:#FFFFFF;stroke:url(#XMLID_114_);stroke-miterlimit:10;" points="217.3,163.4 272.8,104.4 
	217.3,130.8 258.1,65.5 194.5,114.5 211.6,36.8 166.7,100.1 148,9 148.6,163.4 "/>
<linearGradient id="XMLID_115_" gradientUnits="userSpaceOnUse" x1="150.4527" y1="94.4493" x2="262.7027" y2="94.4493">
	<stop  offset="0" style="stop-color:#F7A8B8"/>
	<stop  offset="1" style="stop-color:#F78E43"/>
</linearGradient>
<polygon id="XMLID_3_" style="fill:url(#XMLID_115_);" points="150.5,28.6 150.5,160.3 216.5,160.3 262.7,112.1 212.7,135.6 
	250.2,74.3 191.2,120.1 208,45.6 165.7,104.8 "/>
<linearGradient id="XMLID_116_" gradientUnits="userSpaceOnUse" x1="-199.5261" y1="94.4493" x2="-87.2761" y2="94.4493" gradientTransform="matrix(-1 0 0 1 -70.586 0)">
	<stop  offset="0" style="stop-color:#F7A8B8"/>
	<stop  offset="1" style="stop-color:#F78E43"/>
</linearGradient>
<polygon id="XMLID_2_" style="fill:url(#XMLID_116_);" points="128.9,28.6 128.9,160.3 62.9,160.3 16.7,112.1 66.7,135.6 29.2,74.3 
	88.2,120.1 71.4,45.6 113.7,104.8 "/>
</svg>
