<?xml version="1.0" encoding="utf-8"?>
<!-- Generator: Adobe Illustrator 19.0.0, SVG Export Plug-In . SVG Version: 6.00 Build 0)  -->
<svg version="1.1" id="Layer_1" xmlns="http://www.w3.org/2000/svg" xmlns:xlink="http://www.w3.org/1999/xlink" x="0px" y="0px"
	 viewBox="0 0 275.7 331.9" style="enable-background:new 0 0 275.7 331.9;" xml:space="preserve">
<style type="text/css">
	.st0{fill:#FFFFFF;stroke:#FFFFFF;stroke-miterlimit:10;}
</style>
<g id="XMLID_80_">
	<path id="XMLID_79_" class="st0" d="M138.6,292.6c-50.7,0-94.1-7.8-112.3-19c-3.3-2-7.5,0.4-7.5,4.2v10.5
		c0,21.4,17.4,38.8,38.8,38.8h162c21.4,0,38.8-17.4,38.8-38.8v-10.1c0-4-4.4-6.5-7.8-4.4C232.2,284.9,189,292.6,138.6,292.6z"/>
	<path id="XMLID_78_" class="st0" d="M204.7,166.7H72.5c-29.7,0-53.7,24-53.7,53.7v0c0,3.3,2.7,6.1,6.1,6.1h2.6
		c-2.3-1.5-3.5-2.8-3.5-4c0-7.9,51.3-14.3,114.7-14.3s114.7,6.4,114.7,14.3c0,1.2-1.2,2.6-3.5,4h2.6c3.3,0,6.1-2.7,6.1-6.1v0
		C258.3,190.7,234.3,166.7,204.7,166.7z"/>
	<g id="XMLID_135_">
		<path id="XMLID_136_" class="st0" d="M91.7,233c0,0.1,0,0.2,0,0.3c0,0.3-0.2,0.6-0.6,0.7c0,0-0.4,0.1-1.2,0.2
			c-1.8,0.3-4,0.5-6.7,0.7c-0.7,1.5-1.7,4.5-3,9.1c2.2-0.2,4.5-0.3,6.7-0.4c0.7,0,1.1,0.2,1.4,0.7c0,0.1,0.1,0.5,0.3,1.2
			c0,0.1,0,0.2,0,0.2c0,0.4-0.5,0.7-1.4,0.8c-0.7,0.1-1,0.2-1.2,0.2c-0.2,0-0.4-0.1-0.5-0.3c-0.2-0.3-0.5-0.5-0.9-0.5
			c-2.6,0-4.2,0-5,0.1c-0.4,1.1-1.2,4-2.2,8.7c-0.2,0.9-0.5,1.3-0.9,1.3c-0.2,0-0.8-0.1-1.5-0.4c-0.5-0.2-0.6-0.7-0.5-1.5
			c0.2-1.1,0.4-2.2,0.7-3.3c0.1-0.5,0.6-0.7,1.4-0.5c0.3-0.6,0.6-1.6,1-2.9c-0.5-1.3-0.7-1.9-0.7-2c0-0.1,0-0.1,0-0.2
			c0.1-0.4,0.7-0.7,1.7-0.9c0.1-0.2,1-3.3,2.9-9.2c-1.9,0.1-3.7,0.4-5.4,0.8c-2,0.5-3.3,1-4,1.6c-0.7,0.6-1,1.2-1,1.8
			c0,0.7,0.4,1.7,1.2,3.2c0.1,0.1,0.1,0.3,0.1,0.4c0,0.3-0.1,0.4-0.4,0.4c-0.2,0-0.4-0.1-0.5-0.3c-0.9-1.3-1.5-2.4-1.8-3.1
			c-0.2-0.5-0.3-1.3-0.4-2.2c-0.1-1.4,1-2.5,3.5-3.2c3.2-0.9,6.5-1.5,9.8-1.8c0.4-0.8,0.7-1.1,0.8-1.1c0.3,0,0.7,0.3,1.4,0.9
			c0.3,0,1.3-0.1,2.8-0.4c0.3,0,0.6-0.3,0.8-0.6c0.3-0.3,0.9-0.5,1.8-0.6c0.5,0,0.9,0.2,1.1,0.6C91.4,231.6,91.5,232.1,91.7,233z"/>
		<path id="XMLID_138_" class="st0" d="M110.9,235.3c-0.4,3.7-1.6,7.6-3.6,11.9c-2.6,5.6-5.5,8.5-8.7,8.7c-0.6,0-1.2,0-1.7-0.1
			c-0.6-0.1-0.9-0.3-0.8-0.5c-1.9-0.5-3.3-1-4-1.6c-1-0.9-1.5-2.2-1.4-4c0.1-3.4,1.1-7,3-10.9c1.5-3.1,3-5.3,4.4-6.6
			c0.6-0.6,1.1-0.8,1.7-0.8s1,0.1,1.5,0.4c0.2,0.1,0.9,0.6,2,1.3c0.9-1,1.7-1.7,2.3-2.2c0.4-0.3,0.8-0.4,1.2-0.4
			c0.7,0,1.3,0.3,1.9,1c1,0.1,1.6,0.2,1.9,0.4c0.3,0.2,0.5,0.7,0.5,1.4C111,233.7,111,234.4,110.9,235.3z M108.5,233.8
			c0.1-0.9-0.1-1.3-0.6-1.3c-0.4,0-0.9,0.3-1.7,0.8c-1.7,1.2-3.7,2.9-6.1,5.1c-0.3,0.3-0.5,0.4-0.7,0.4c-0.2,0-0.3-0.1-0.3-0.3
			c0-0.2,0.1-0.4,0.3-0.7c1-1.6,2.1-3,3.1-4.1c-0.6-0.5-1.2-0.7-1.6-0.7c-0.3,0-0.6,0.1-0.8,0.3c-1.3,0.9-2.8,3.1-4.4,6.3
			c-2,3.9-2.9,7.2-2.7,10.1c0.1,1.2,0.3,2.1,0.7,2.7c0.4,0.5,1,1,1.9,1.5c0.7,0.4,1.4,0.5,2.1,0.4c2.4-0.3,4.8-2.7,7.1-7.3
			C107,242.7,108.2,238.2,108.5,233.8z"/>
		<path id="XMLID_141_" class="st0" d="M131.9,235.3c-0.4,3.7-1.6,7.6-3.6,11.9c-2.6,5.6-5.5,8.5-8.7,8.7c-0.6,0-1.2,0-1.7-0.1
			c-0.6-0.1-0.9-0.3-0.8-0.5c-1.9-0.5-3.3-1-4-1.6c-1-0.9-1.5-2.2-1.4-4c0.1-3.4,1.1-7,3-10.9c1.5-3.1,3-5.3,4.4-6.6
			c0.6-0.6,1.1-0.8,1.7-0.8s1,0.1,1.5,0.4c0.2,0.1,0.9,0.6,2,1.3c0.9-1,1.7-1.7,2.3-2.2c0.4-0.3,0.8-0.4,1.2-0.4
			c0.7,0,1.3,0.3,1.9,1c1,0.1,1.6,0.2,1.9,0.4c0.3,0.2,0.5,0.7,0.5,1.4C132,233.7,132,234.4,131.9,235.3z M129.5,233.8
			c0.1-0.9-0.1-1.3-0.6-1.3c-0.4,0-0.9,0.3-1.7,0.8c-1.7,1.2-3.7,2.9-6.1,5.1c-0.3,0.3-0.5,0.4-0.7,0.4c-0.2,0-0.3-0.1-0.3-0.3
			c0-0.2,0.1-0.4,0.3-0.7c1-1.6,2.1-3,3.1-4.1c-0.6-0.5-1.2-0.7-1.6-0.7c-0.3,0-0.6,0.1-0.8,0.3c-1.3,0.9-2.8,3.1-4.4,6.3
			c-2,3.9-2.9,7.2-2.7,10.1c0.1,1.2,0.3,2.1,0.7,2.7c0.4,0.5,1,1,1.9,1.5c0.7,0.4,1.4,0.5,2.1,0.4c2.4-0.3,4.8-2.7,7.1-7.3
			C127.9,242.7,129.2,238.2,129.5,233.8z"/>
		<path id="XMLID_144_" class="st0" d="M154.6,236.5c-0.4,2.7-1.2,5.7-2.6,8.8c-1.3,2.9-2.7,5.3-4.2,7.4s-2.8,3.1-3.7,3.1
			c-1.2,0-2.8-0.7-5-2.2c-0.2-0.1-0.2-0.3-0.2-0.4c0-0.4,0.2-0.6,0.7-0.6c0.1,0,0.2,0,0.4,0.1c0.9,0.6,1.9,0.9,2.9,0.9
			c1.5,0.1,3.3-2.1,5.6-6.5c2.3-4.3,3.6-8.2,3.9-11.5c0.1-1.1-0.5-1.9-1.8-2.4c-0.3-0.1-0.6-0.2-0.8-0.1c-2.3,0.3-4.4,1.1-6.6,2.5
			c-1.1,2.6-2.2,5.7-3.3,9.3c-1.2,3.9-2.1,7.3-2.7,10.2c-0.1,0.6-0.4,0.9-0.7,0.9c-0.1,0-0.3,0-0.5-0.1c-0.6-0.3-1-0.6-1.2-0.8
			c-0.3-0.3-0.4-0.6-0.4-1.1c0-1,0.2-2.2,0.5-3.5c0.1-0.3,0.2-0.5,0.4-0.5c0.2,0,0.6,0.3,1.2,0.8c1.6-5.4,3.1-10.1,4.5-13.9
			c-2.6,1.6-4.6,3.2-6,4.7c-0.3,0.4-0.5,0.8-0.5,1.3c0,0.4,0.1,0.9,0.4,1.5s0.4,0.9,0.4,0.9c0,0.2-0.1,0.3-0.4,0.3
			c-0.2,0-0.4-0.1-0.5-0.2c-1.5-1.7-2.2-2.9-2.2-3.6c0-0.7,0.5-1.5,1.4-2.3c2-1.8,4.9-3.8,8.6-5.9c0.6-1.5,1.1-2.2,1.4-2.2
			c0.2,0,0.6,0.3,1.3,0.9c0.6-0.3,1.3-0.6,1.9-0.9c0.5-0.2,1-0.4,1.3-0.4c0.6,0,1.3,0.3,2.3,0.9c0,0,0.1-0.1,0.2-0.1
			c0.7,0,1.7,0.6,3,1.8c0.7,0.7,1.1,1.4,1.1,2.2C154.7,236.1,154.7,236.3,154.6,236.5z"/>
		<path id="XMLID_146_" class="st0" d="M168.8,237.4c-0.4,3.4-1.5,7.2-3.2,11.4c-2.1,4.9-4,7.4-6,7.4c-1.2,0-2.6-0.6-4.2-1.9
			c-0.1-0.1-0.2-0.2-0.2-0.4c0-0.4,0.2-0.6,0.6-0.6c0.1,0,0.2,0,0.3,0.1c1,0.5,1.9,0.8,2.6,0.8c1.6,0,3.3-2.3,5.2-6.9
			c1.8-4.5,2.8-8.6,2.9-12.1c0-1.2-0.5-1.7-1.7-1.7c-0.2,0-0.4,0-0.6,0.1c-0.9,0.1-2,0.9-3.1,2.2c-1.3,1.5-2.2,3.2-2.7,5
			c-0.1,0.2-0.1,0.5-0.1,0.7c0,0.4,0.1,0.8,0.4,1.2c0.3,0.3,0.5,0.5,0.8,0.8c0.1,0.1,0.2,0.2,0.2,0.4c0,0.2-0.2,0.3-0.5,0.3
			c-0.1,0-0.3,0-0.4-0.1c-1-0.6-1.7-1.1-2.1-1.5c-0.4-0.5-0.7-1-0.7-1.6c0-0.6,0.2-1.3,0.6-2.3c0.6-1.4,1.5-2.8,2.7-4.2
			c1.1-1.3,2.2-2.1,3.1-2.5c0.4-0.2,1.3-0.1,2.6,0.3c0.1-0.1,0.2-0.2,0.4-0.2c0.5,0,1.4,0.4,2.7,1.3
			C168.9,233.9,169.1,235.2,168.8,237.4z"/>
		<path id="XMLID_148_" class="st0" d="M193.3,233c0,0.1,0,0.2,0,0.3c0,0.3-0.2,0.6-0.6,0.7c0,0-0.4,0.1-1.2,0.2
			c-1.8,0.3-4,0.5-6.7,0.7c-0.7,1.5-1.7,4.5-3,9.1c2.2-0.2,4.5-0.3,6.7-0.4c0.7,0,1.1,0.2,1.4,0.7c0,0.1,0.1,0.5,0.3,1.2
			c0,0.1,0,0.2,0,0.2c0,0.4-0.5,0.7-1.4,0.8c-0.7,0.1-1,0.2-1.2,0.2c-0.2,0-0.4-0.1-0.5-0.3c-0.2-0.3-0.5-0.5-0.9-0.5
			c-2.6,0-4.2,0-5,0.1c-0.4,1.1-1.2,4-2.2,8.7c-0.2,0.9-0.5,1.3-0.9,1.3c-0.2,0-0.8-0.1-1.5-0.4c-0.5-0.2-0.6-0.7-0.5-1.5
			c0.2-1.1,0.4-2.2,0.7-3.3c0.1-0.5,0.6-0.7,1.4-0.5c0.3-0.6,0.6-1.6,1-2.9c-0.5-1.3-0.7-1.9-0.7-2c0-0.1,0-0.1,0-0.2
			c0.1-0.4,0.7-0.7,1.7-0.9c0.1-0.2,1-3.3,2.9-9.2c-1.9,0.1-3.7,0.4-5.4,0.8c-2,0.5-3.3,1-4,1.6c-0.7,0.6-1,1.2-1,1.8
			c0,0.7,0.4,1.7,1.2,3.2c0.1,0.1,0.1,0.3,0.1,0.4c0,0.3-0.1,0.4-0.4,0.4c-0.2,0-0.4-0.1-0.5-0.3c-0.9-1.3-1.5-2.4-1.8-3.1
			c-0.2-0.5-0.3-1.3-0.4-2.2c-0.1-1.4,1-2.5,3.5-3.2c3.2-0.9,6.5-1.5,9.8-1.8c0.4-0.8,0.7-1.1,0.8-1.1c0.3,0,0.7,0.3,1.4,0.9
			c0.3,0,1.3-0.1,2.8-0.4c0.3,0,0.6-0.3,0.8-0.6c0.3-0.3,0.9-0.5,1.8-0.6c0.5,0,0.9,0.2,1.1,0.6C192.9,231.6,193,232.1,193.3,233z"
			/>
		<path id="XMLID_150_" class="st0" d="M216.6,233.2c0.2,0.2,0.2,0.4,0.2,0.6c0,0.6-0.7,1.9-2.1,3.9c-0.3,0.8-1.3,3.8-2.8,8.8
			c-1.5,4.9-2.6,8.4-3.4,10.3c-0.5,1.3-0.9,2.1-1.3,2.5c-0.4,0.6-0.9,0.9-1.4,0.9c-0.8,0-2.3-0.8-4.6-2.4c-0.3-0.2-0.4-0.4-0.4-0.5
			c0-0.3,0.2-0.4,0.6-0.4c0.1,0,0.3,0,0.4,0.1c1.2,0.5,2,0.7,2.3,0.7c0.7,0,1.2-0.5,1.7-1.4c2.2-3.9,4.1-8.8,5.7-14.7
			c-2.2,3.9-4.7,7.2-7.3,9.9c-0.7,0.7-1.3,1.1-1.7,1.1c-0.4,0-0.8-0.3-1.3-0.8c-1.3-0.8-2.1-1.4-2.4-1.7c-0.4-0.5-0.6-1.4-0.5-2.7
			c0.1-2.5,1.3-6.7,3.6-12.3c-2.8,1-4.9,2.1-6.2,3.1c-0.6,0.5-0.9,0.9-0.9,1.4c0,0,0.2,0.7,0.6,1.9c0,0.1,0,0.1,0,0.2
			c0,0.2-0.1,0.3-0.3,0.3c-0.3,0-0.6-0.2-0.9-0.6c-1.1-1.7-1.6-2.9-1.6-3.6c0-0.9,0.6-1.6,1.9-2c2.3-0.7,5.1-1.7,8.6-2.8
			c0.5-0.9,1-1.4,1.5-1.4c0.5,0,1.2,0.4,2.2,1.3c0.2,0.1,0.2,0.3,0.2,0.4c0,0.3-0.5,0.5-1.6,0.8c-1.4,2-2.6,4.5-3.6,7.7
			c-0.8,2.8-1.3,5-1.3,6.7c0,1.7,0.5,2.5,1.4,2.5c0.4,0,0.9-0.2,1.3-0.7c4.2-4.2,7.8-9.5,10.9-15.9c0.3-1.2,0.7-1.8,1.2-1.8
			C215.6,232.3,216.1,232.6,216.6,233.2z"/>
	</g>
	<g id="XMLID_101_">
		<path id="XMLID_102_" class="st0" d="M91.7,233c0,0.1,0,0.2,0,0.3c0,0.3-0.2,0.6-0.6,0.7c0,0-0.4,0.1-1.2,0.2
			c-1.8,0.3-4,0.5-6.7,0.7c-0.7,1.5-1.7,4.5-3,9.1c2.2-0.2,4.5-0.3,6.7-0.4c0.7,0,1.1,0.2,1.4,0.7c0,0.1,0.1,0.5,0.3,1.2
			c0,0.1,0,0.2,0,0.2c0,0.4-0.5,0.7-1.4,0.8c-0.7,0.1-1,0.2-1.2,0.2c-0.2,0-0.4-0.1-0.5-0.3c-0.2-0.3-0.5-0.5-0.9-0.5
			c-2.6,0-4.2,0-5,0.1c-0.4,1.1-1.2,4-2.2,8.7c-0.2,0.9-0.5,1.3-0.9,1.3c-0.2,0-0.8-0.1-1.5-0.4c-0.5-0.2-0.6-0.7-0.5-1.5
			c0.2-1.1,0.4-2.2,0.7-3.3c0.1-0.5,0.6-0.7,1.4-0.5c0.3-0.6,0.6-1.6,1-2.9c-0.5-1.3-0.7-1.9-0.7-2c0-0.1,0-0.1,0-0.2
			c0.1-0.4,0.7-0.7,1.7-0.9c0.1-0.2,1-3.3,2.9-9.2c-1.9,0.1-3.7,0.4-5.4,0.8c-2,0.5-3.3,1-4,1.6c-0.7,0.6-1,1.2-1,1.8
			c0,0.7,0.4,1.7,1.2,3.2c0.1,0.1,0.1,0.3,0.1,0.4c0,0.3-0.1,0.4-0.4,0.4c-0.2,0-0.4-0.1-0.5-0.3c-0.9-1.3-1.5-2.4-1.8-3.1
			c-0.2-0.5-0.3-1.3-0.4-2.2c-0.1-1.4,1-2.5,3.5-3.2c3.2-0.9,6.5-1.5,9.8-1.8c0.4-0.8,0.7-1.1,0.8-1.1c0.3,0,0.7,0.3,1.4,0.9
			c0.3,0,1.3-0.1,2.8-0.4c0.3,0,0.6-0.3,0.8-0.6c0.3-0.3,0.9-0.5,1.8-0.6c0.5,0,0.9,0.2,1.1,0.6C91.4,231.6,91.5,232.1,91.7,233z"/>
		<path id="XMLID_104_" class="st0" d="M110.9,235.3c-0.4,3.7-1.6,7.6-3.6,11.9c-2.6,5.6-5.5,8.5-8.7,8.7c-0.6,0-1.2,0-1.7-0.1
			c-0.6-0.1-0.9-0.3-0.8-0.5c-1.9-0.5-3.3-1-4-1.6c-1-0.9-1.5-2.2-1.4-4c0.1-3.4,1.1-7,3-10.9c1.5-3.1,3-5.3,4.4-6.6
			c0.6-0.6,1.1-0.8,1.7-0.8s1,0.1,1.5,0.4c0.2,0.1,0.9,0.6,2,1.3c0.9-1,1.7-1.7,2.3-2.2c0.4-0.3,0.8-0.4,1.2-0.4
			c0.7,0,1.3,0.3,1.9,1c1,0.1,1.6,0.2,1.9,0.4c0.3,0.2,0.5,0.7,0.5,1.4C111,233.7,111,234.4,110.9,235.3z M108.5,233.8
			c0.1-0.9-0.1-1.3-0.6-1.3c-0.4,0-0.9,0.3-1.7,0.8c-1.7,1.2-3.7,2.9-6.1,5.1c-0.3,0.3-0.5,0.4-0.7,0.4c-0.2,0-0.3-0.1-0.3-0.3
			c0-0.2,0.1-0.4,0.3-0.7c1-1.6,2.1-3,3.1-4.1c-0.6-0.5-1.2-0.7-1.6-0.7c-0.3,0-0.6,0.1-0.8,0.3c-1.3,0.9-2.8,3.1-4.4,6.3
			c-2,3.9-2.9,7.2-2.7,10.1c0.1,1.2,0.3,2.1,0.7,2.7c0.4,0.5,1,1,1.9,1.5c0.7,0.4,1.4,0.5,2.1,0.4c2.4-0.3,4.8-2.7,7.1-7.3
			C107,242.7,108.2,238.2,108.5,233.8z"/>
		<path id="XMLID_107_" class="st0" d="M131.9,235.3c-0.4,3.7-1.6,7.6-3.6,11.9c-2.6,5.6-5.5,8.5-8.7,8.7c-0.6,0-1.2,0-1.7-0.1
			c-0.6-0.1-0.9-0.3-0.8-0.5c-1.9-0.5-3.3-1-4-1.6c-1-0.9-1.5-2.2-1.4-4c0.1-3.4,1.1-7,3-10.9c1.5-3.1,3-5.3,4.4-6.6
			c0.6-0.6,1.1-0.8,1.7-0.8s1,0.1,1.5,0.4c0.2,0.1,0.9,0.6,2,1.3c0.9-1,1.7-1.7,2.3-2.2c0.4-0.3,0.8-0.4,1.2-0.4
			c0.7,0,1.3,0.3,1.9,1c1,0.1,1.6,0.2,1.9,0.4c0.3,0.2,0.5,0.7,0.5,1.4C132,233.7,132,234.4,131.9,235.3z M129.5,233.8
			c0.1-0.9-0.1-1.3-0.6-1.3c-0.4,0-0.9,0.3-1.7,0.8c-1.7,1.2-3.7,2.9-6.1,5.1c-0.3,0.3-0.5,0.4-0.7,0.4c-0.2,0-0.3-0.1-0.3-0.3
			c0-0.2,0.1-0.4,0.3-0.7c1-1.6,2.1-3,3.1-4.1c-0.6-0.5-1.2-0.7-1.6-0.7c-0.3,0-0.6,0.1-0.8,0.3c-1.3,0.9-2.8,3.1-4.4,6.3
			c-2,3.9-2.9,7.2-2.7,10.1c0.1,1.2,0.3,2.1,0.7,2.7c0.4,0.5,1,1,1.9,1.5c0.7,0.4,1.4,0.5,2.1,0.4c2.4-0.3,4.8-2.7,7.1-7.3
			C127.9,242.7,129.2,238.2,129.5,233.8z"/>
		<path id="XMLID_110_" class="st0" d="M154.6,236.5c-0.4,2.7-1.2,5.7-2.6,8.8c-1.3,2.9-2.7,5.3-4.2,7.4s-2.8,3.1-3.7,3.1
			c-1.2,0-2.8-0.7-5-2.2c-0.2-0.1-0.2-0.3-0.2-0.4c0-0.4,0.2-0.6,0.7-0.6c0.1,0,0.2,0,0.4,0.1c0.9,0.6,1.9,0.9,2.9,0.9
			c1.5,0.1,3.3-2.1,5.6-6.5c2.3-4.3,3.6-8.2,3.9-11.5c0.1-1.1-0.5-1.9-1.8-2.4c-0.3-0.1-0.6-0.2-0.8-0.1c-2.3,0.3-4.4,1.1-6.6,2.5
			c-1.1,2.6-2.2,5.7-3.3,9.3c-1.2,3.9-2.1,7.3-2.7,10.2c-0.1,0.6-0.4,0.9-0.7,0.9c-0.1,0-0.3,0-0.5-0.1c-0.6-0.3-1-0.6-1.2-0.8
			c-0.3-0.3-0.4-0.6-0.4-1.1c0-1,0.2-2.2,0.5-3.5c0.1-0.3,0.2-0.5,0.4-0.5c0.2,0,0.6,0.3,1.2,0.8c1.6-5.4,3.1-10.1,4.5-13.9
			c-2.6,1.6-4.6,3.2-6,4.7c-0.3,0.4-0.5,0.8-0.5,1.3c0,0.4,0.1,0.9,0.4,1.5s0.4,0.9,0.4,0.9c0,0.2-0.1,0.3-0.4,0.3
			c-0.2,0-0.4-0.1-0.5-0.2c-1.5-1.7-2.2-2.9-2.2-3.6c0-0.7,0.5-1.5,1.4-2.3c2-1.8,4.9-3.8,8.6-5.9c0.6-1.5,1.1-2.2,1.4-2.2
			c0.2,0,0.6,0.3,1.3,0.9c0.6-0.3,1.3-0.6,1.9-0.9c0.5-0.2,1-0.4,1.3-0.4c0.6,0,1.3,0.3,2.3,0.9c0,0,0.1-0.1,0.2-0.1
			c0.7,0,1.7,0.6,3,1.8c0.7,0.7,1.1,1.4,1.1,2.2C154.7,236.1,154.7,236.3,154.6,236.5z"/>
		<path id="XMLID_112_" class="st0" d="M168.8,237.4c-0.4,3.4-1.5,7.2-3.2,11.4c-2.1,4.9-4,7.4-6,7.4c-1.2,0-2.6-0.6-4.2-1.9
			c-0.1-0.1-0.2-0.2-0.2-0.4c0-0.4,0.2-0.6,0.6-0.6c0.1,0,0.2,0,0.3,0.1c1,0.5,1.9,0.8,2.6,0.8c1.6,0,3.3-2.3,5.2-6.9
			c1.8-4.5,2.8-8.6,2.9-12.1c0-1.2-0.5-1.7-1.7-1.7c-0.2,0-0.4,0-0.6,0.1c-0.9,0.1-2,0.9-3.1,2.2c-1.3,1.5-2.2,3.2-2.7,5
			c-0.1,0.2-0.1,0.5-0.1,0.7c0,0.4,0.1,0.8,0.4,1.2c0.3,0.3,0.5,0.5,0.8,0.8c0.1,0.1,0.2,0.2,0.2,0.4c0,0.2-0.2,0.3-0.5,0.3
			c-0.1,0-0.3,0-0.4-0.1c-1-0.6-1.7-1.1-2.1-1.5c-0.4-0.5-0.7-1-0.7-1.6c0-0.6,0.2-1.3,0.6-2.3c0.6-1.4,1.5-2.8,2.7-4.2
			c1.1-1.3,2.2-2.1,3.1-2.5c0.4-0.2,1.3-0.1,2.6,0.3c0.1-0.1,0.2-0.2,0.4-0.2c0.5,0,1.4,0.4,2.7,1.3
			C168.9,233.9,169.1,235.2,168.8,237.4z"/>
		<path id="XMLID_114_" class="st0" d="M193.3,233c0,0.1,0,0.2,0,0.3c0,0.3-0.2,0.6-0.6,0.7c0,0-0.4,0.1-1.2,0.2
			c-1.8,0.3-4,0.5-6.7,0.7c-0.7,1.5-1.7,4.5-3,9.1c2.2-0.2,4.5-0.3,6.7-0.4c0.7,0,1.1,0.2,1.4,0.7c0,0.1,0.1,0.5,0.3,1.2
			c0,0.1,0,0.2,0,0.2c0,0.4-0.5,0.7-1.4,0.8c-0.7,0.1-1,0.2-1.2,0.2c-0.2,0-0.4-0.1-0.5-0.3c-0.2-0.3-0.5-0.5-0.9-0.5
			c-2.6,0-4.2,0-5,0.1c-0.4,1.1-1.2,4-2.2,8.7c-0.2,0.9-0.5,1.3-0.9,1.3c-0.2,0-0.8-0.1-1.5-0.4c-0.5-0.2-0.6-0.7-0.5-1.5
			c0.2-1.1,0.4-2.2,0.7-3.3c0.1-0.5,0.6-0.7,1.4-0.5c0.3-0.6,0.6-1.6,1-2.9c-0.5-1.3-0.7-1.9-0.7-2c0-0.1,0-0.1,0-0.2
			c0.1-0.4,0.7-0.7,1.7-0.9c0.1-0.2,1-3.3,2.9-9.2c-1.9,0.1-3.7,0.4-5.4,0.8c-2,0.5-3.3,1-4,1.6c-0.7,0.6-1,1.2-1,1.8
			c0,0.7,0.4,1.7,1.2,3.2c0.1,0.1,0.1,0.3,0.1,0.4c0,0.3-0.1,0.4-0.4,0.4c-0.2,0-0.4-0.1-0.5-0.3c-0.9-1.3-1.5-2.4-1.8-3.1
			c-0.2-0.5-0.3-1.3-0.4-2.2c-0.1-1.4,1-2.5,3.5-3.2c3.2-0.9,6.5-1.5,9.8-1.8c0.4-0.8,0.7-1.1,0.8-1.1c0.3,0,0.7,0.3,1.4,0.9
			c0.3,0,1.3-0.1,2.8-0.4c0.3,0,0.6-0.3,0.8-0.6c0.3-0.3,0.9-0.5,1.8-0.6c0.5,0,0.9,0.2,1.1,0.6C192.9,231.6,193,232.1,193.3,233z"
			/>
		<path id="XMLID_116_" class="st0" d="M216.6,233.2c0.2,0.2,0.2,0.4,0.2,0.6c0,0.6-0.7,1.9-2.1,3.9c-0.3,0.8-1.3,3.8-2.8,8.8
			c-1.5,4.9-2.6,8.4-3.4,10.3c-0.5,1.3-0.9,2.1-1.3,2.5c-0.4,0.6-0.9,0.9-1.4,0.9c-0.8,0-2.3-0.8-4.6-2.4c-0.3-0.2-0.4-0.4-0.4-0.5
			c0-0.3,0.2-0.4,0.6-0.4c0.1,0,0.3,0,0.4,0.1c1.2,0.5,2,0.7,2.3,0.7c0.7,0,1.2-0.5,1.7-1.4c2.2-3.9,4.1-8.8,5.7-14.7
			c-2.2,3.9-4.7,7.2-7.3,9.9c-0.7,0.7-1.3,1.1-1.7,1.1c-0.4,0-0.8-0.3-1.3-0.8c-1.3-0.8-2.1-1.4-2.4-1.7c-0.4-0.5-0.6-1.4-0.5-2.7
			c0.1-2.5,1.3-6.7,3.6-12.3c-2.8,1-4.9,2.1-6.2,3.1c-0.6,0.5-0.9,0.9-0.9,1.4c0,0,0.2,0.7,0.6,1.9c0,0.1,0,0.1,0,0.2
			c0,0.2-0.1,0.3-0.3,0.3c-0.3,0-0.6-0.2-0.9-0.6c-1.1-1.7-1.6-2.9-1.6-3.6c0-0.9,0.6-1.6,1.9-2c2.3-0.7,5.1-1.7,8.6-2.8
			c0.5-0.9,1-1.4,1.5-1.4c0.5,0,1.2,0.4,2.2,1.3c0.2,0.1,0.2,0.3,0.2,0.4c0,0.3-0.5,0.5-1.6,0.8c-1.4,2-2.6,4.5-3.6,7.7
			c-0.8,2.8-1.3,5-1.3,6.7c0,1.7,0.5,2.5,1.4,2.5c0.4,0,0.9-0.2,1.3-0.7c4.2-4.2,7.8-9.5,10.9-15.9c0.3-1.2,0.7-1.8,1.2-1.8
			C215.6,232.3,216.1,232.6,216.6,233.2z"/>
	</g>
	<g id="XMLID_77_">
		<path id="XMLID_61_" class="st0" d="M91.7,233c0,0.1,0,0.2,0,0.3c0,0.3-0.2,0.6-0.6,0.7c0,0-0.4,0.1-1.2,0.2
			c-1.8,0.3-4,0.5-6.7,0.7c-0.7,1.5-1.7,4.5-3,9.1c2.2-0.2,4.5-0.3,6.7-0.4c0.7,0,1.1,0.2,1.4,0.7c0,0.1,0.1,0.5,0.3,1.2
			c0,0.1,0,0.2,0,0.2c0,0.4-0.5,0.7-1.4,0.8c-0.7,0.1-1,0.2-1.2,0.2c-0.2,0-0.4-0.1-0.5-0.3c-0.2-0.3-0.5-0.5-0.9-0.5
			c-2.6,0-4.2,0-5,0.1c-0.4,1.1-1.2,4-2.2,8.7c-0.2,0.9-0.5,1.3-0.9,1.3c-0.2,0-0.8-0.1-1.5-0.4c-0.5-0.2-0.6-0.7-0.5-1.5
			c0.2-1.1,0.4-2.2,0.7-3.3c0.1-0.5,0.6-0.7,1.4-0.5c0.3-0.6,0.6-1.6,1-2.9c-0.5-1.3-0.7-1.9-0.7-2c0-0.1,0-0.1,0-0.2
			c0.1-0.4,0.7-0.7,1.7-0.9c0.1-0.2,1-3.3,2.9-9.2c-1.9,0.1-3.7,0.4-5.4,0.8c-2,0.5-3.3,1-4,1.6c-0.7,0.6-1,1.2-1,1.8
			c0,0.7,0.4,1.7,1.2,3.2c0.1,0.1,0.1,0.3,0.1,0.4c0,0.3-0.1,0.4-0.4,0.4c-0.2,0-0.4-0.1-0.5-0.3c-0.9-1.3-1.5-2.4-1.8-3.1
			c-0.2-0.5-0.3-1.3-0.4-2.2c-0.1-1.4,1-2.5,3.5-3.2c3.2-0.9,6.5-1.5,9.8-1.8c0.4-0.8,0.7-1.1,0.8-1.1c0.3,0,0.7,0.3,1.4,0.9
			c0.3,0,1.3-0.1,2.8-0.4c0.3,0,0.6-0.3,0.8-0.6c0.3-0.3,0.9-0.5,1.8-0.6c0.5,0,0.9,0.2,1.1,0.6C91.4,231.6,91.5,232.1,91.7,233z"/>
		<path id="XMLID_63_" class="st0" d="M110.9,235.3c-0.4,3.7-1.6,7.6-3.6,11.9c-2.6,5.6-5.5,8.5-8.7,8.7c-0.6,0-1.2,0-1.7-0.1
			c-0.6-0.1-0.9-0.3-0.8-0.5c-1.9-0.5-3.3-1-4-1.6c-1-0.9-1.5-2.2-1.4-4c0.1-3.4,1.1-7,3-10.9c1.5-3.1,3-5.3,4.4-6.6
			c0.6-0.6,1.1-0.8,1.7-0.8s1,0.1,1.5,0.4c0.2,0.1,0.9,0.6,2,1.3c0.9-1,1.7-1.7,2.3-2.2c0.4-0.3,0.8-0.4,1.2-0.4
			c0.7,0,1.3,0.3,1.9,1c1,0.1,1.6,0.2,1.9,0.4c0.3,0.2,0.5,0.7,0.5,1.4C111,233.7,111,234.4,110.9,235.3z M108.5,233.8
			c0.1-0.9-0.1-1.3-0.6-1.3c-0.4,0-0.9,0.3-1.7,0.8c-1.7,1.2-3.7,2.9-6.1,5.1c-0.3,0.3-0.5,0.4-0.7,0.4c-0.2,0-0.3-0.1-0.3-0.3
			c0-0.2,0.1-0.4,0.3-0.7c1-1.6,2.1-3,3.1-4.1c-0.6-0.5-1.2-0.7-1.6-0.7c-0.3,0-0.6,0.1-0.8,0.3c-1.3,0.9-2.8,3.1-4.4,6.3
			c-2,3.9-2.9,7.2-2.7,10.1c0.1,1.2,0.3,2.1,0.7,2.7c0.4,0.5,1,1,1.9,1.5c0.7,0.4,1.4,0.5,2.1,0.4c2.4-0.3,4.8-2.7,7.1-7.3
			C107,242.7,108.2,238.2,108.5,233.8z"/>
		<path id="XMLID_66_" class="st0" d="M131.9,235.3c-0.4,3.7-1.6,7.6-3.6,11.9c-2.6,5.6-5.5,8.5-8.7,8.7c-0.6,0-1.2,0-1.7-0.1
			c-0.6-0.1-0.9-0.3-0.8-0.5c-1.9-0.5-3.3-1-4-1.6c-1-0.9-1.5-2.2-1.4-4c0.1-3.4,1.1-7,3-10.9c1.5-3.1,3-5.3,4.4-6.6
			c0.6-0.6,1.1-0.8,1.7-0.8s1,0.1,1.5,0.4c0.2,0.1,0.9,0.6,2,1.3c0.9-1,1.7-1.7,2.3-2.2c0.4-0.3,0.8-0.4,1.2-0.4
			c0.7,0,1.3,0.3,1.9,1c1,0.1,1.6,0.2,1.9,0.4c0.3,0.2,0.5,0.7,0.5,1.4C132,233.7,132,234.4,131.9,235.3z M129.5,233.8
			c0.1-0.9-0.1-1.3-0.6-1.3c-0.4,0-0.9,0.3-1.7,0.8c-1.7,1.2-3.7,2.9-6.1,5.1c-0.3,0.3-0.5,0.4-0.7,0.4c-0.2,0-0.3-0.1-0.3-0.3
			c0-0.2,0.1-0.4,0.3-0.7c1-1.6,2.1-3,3.1-4.1c-0.6-0.5-1.2-0.7-1.6-0.7c-0.3,0-0.6,0.1-0.8,0.3c-1.3,0.9-2.8,3.1-4.4,6.3
			c-2,3.9-2.9,7.2-2.7,10.1c0.1,1.2,0.3,2.1,0.7,2.7c0.4,0.5,1,1,1.9,1.5c0.7,0.4,1.4,0.5,2.1,0.4c2.4-0.3,4.8-2.7,7.1-7.3
			C127.9,242.7,129.2,238.2,129.5,233.8z"/>
		<path id="XMLID_69_" class="st0" d="M154.6,236.5c-0.4,2.7-1.2,5.7-2.6,8.8c-1.3,2.9-2.7,5.3-4.2,7.4s-2.8,3.1-3.7,3.1
			c-1.2,0-2.8-0.7-5-2.2c-0.2-0.1-0.2-0.3-0.2-0.4c0-0.4,0.2-0.6,0.7-0.6c0.1,0,0.2,0,0.4,0.1c0.9,0.6,1.9,0.9,2.9,0.9
			c1.5,0.1,3.3-2.1,5.6-6.5c2.3-4.3,3.6-8.2,3.9-11.5c0.1-1.1-0.5-1.9-1.8-2.4c-0.3-0.1-0.6-0.2-0.8-0.1c-2.3,0.3-4.4,1.1-6.6,2.5
			c-1.1,2.6-2.2,5.7-3.3,9.3c-1.2,3.9-2.1,7.3-2.7,10.2c-0.1,0.6-0.4,0.9-0.7,0.9c-0.1,0-0.3,0-0.5-0.1c-0.6-0.3-1-0.6-1.2-0.8
			c-0.3-0.3-0.4-0.6-0.4-1.1c0-1,0.2-2.2,0.5-3.5c0.1-0.3,0.2-0.5,0.4-0.5c0.2,0,0.6,0.3,1.2,0.8c1.6-5.4,3.1-10.1,4.5-13.9
			c-2.6,1.6-4.6,3.2-6,4.7c-0.3,0.4-0.5,0.8-0.5,1.3c0,0.4,0.1,0.9,0.4,1.5s0.4,0.9,0.4,0.9c0,0.2-0.1,0.3-0.4,0.3
			c-0.2,0-0.4-0.1-0.5-0.2c-1.5-1.7-2.2-2.9-2.2-3.6c0-0.7,0.5-1.5,1.4-2.3c2-1.8,4.9-3.8,8.6-5.9c0.6-1.5,1.1-2.2,1.4-2.2
			c0.2,0,0.6,0.3,1.3,0.9c0.6-0.3,1.3-0.6,1.9-0.9c0.5-0.2,1-0.4,1.3-0.4c0.6,0,1.3,0.3,2.3,0.9c0,0,0.1-0.1,0.2-0.1
			c0.7,0,1.7,0.6,3,1.8c0.7,0.7,1.1,1.4,1.1,2.2C154.7,236.1,154.7,236.3,154.6,236.5z"/>
		<path id="XMLID_71_" class="st0" d="M168.8,237.4c-0.4,3.4-1.5,7.2-3.2,11.4c-2.1,4.9-4,7.4-6,7.4c-1.2,0-2.6-0.6-4.2-1.9
			c-0.1-0.1-0.2-0.2-0.2-0.4c0-0.4,0.2-0.6,0.6-0.6c0.1,0,0.2,0,0.3,0.1c1,0.5,1.9,0.8,2.6,0.8c1.6,0,3.3-2.3,5.2-6.9
			c1.8-4.5,2.8-8.6,2.9-12.1c0-1.2-0.5-1.7-1.7-1.7c-0.2,0-0.4,0-0.6,0.1c-0.9,0.1-2,0.9-3.1,2.2c-1.3,1.5-2.2,3.2-2.7,5
			c-0.1,0.2-0.1,0.5-0.1,0.7c0,0.4,0.1,0.8,0.4,1.2c0.3,0.3,0.5,0.5,0.8,0.8c0.1,0.1,0.2,0.2,0.2,0.4c0,0.2-0.2,0.3-0.5,0.3
			c-0.1,0-0.3,0-0.4-0.1c-1-0.6-1.7-1.1-2.1-1.5c-0.4-0.5-0.7-1-0.7-1.6c0-0.6,0.2-1.3,0.6-2.3c0.6-1.4,1.5-2.8,2.7-4.2
			c1.1-1.3,2.2-2.1,3.1-2.5c0.4-0.2,1.3-0.1,2.6,0.3c0.1-0.1,0.2-0.2,0.4-0.2c0.5,0,1.4,0.4,2.7,1.3
			C168.9,233.9,169.1,235.2,168.8,237.4z"/>
		<path id="XMLID_81_" class="st0" d="M193.3,233c0,0.1,0,0.2,0,0.3c0,0.3-0.2,0.6-0.6,0.7c0,0-0.4,0.1-1.2,0.2
			c-1.8,0.3-4,0.5-6.7,0.7c-0.7,1.5-1.7,4.5-3,9.1c2.2-0.2,4.5-0.3,6.7-0.4c0.7,0,1.1,0.2,1.4,0.7c0,0.1,0.1,0.5,0.3,1.2
			c0,0.1,0,0.2,0,0.2c0,0.4-0.5,0.7-1.4,0.8c-0.7,0.1-1,0.2-1.2,0.2c-0.2,0-0.4-0.1-0.5-0.3c-0.2-0.3-0.5-0.5-0.9-0.5
			c-2.6,0-4.2,0-5,0.1c-0.4,1.1-1.2,4-2.2,8.7c-0.2,0.9-0.5,1.3-0.9,1.3c-0.2,0-0.8-0.1-1.5-0.4c-0.5-0.2-0.6-0.7-0.5-1.5
			c0.2-1.1,0.4-2.2,0.7-3.3c0.1-0.5,0.6-0.7,1.4-0.5c0.3-0.6,0.6-1.6,1-2.9c-0.5-1.3-0.7-1.9-0.7-2c0-0.1,0-0.1,0-0.2
			c0.1-0.4,0.7-0.7,1.7-0.9c0.1-0.2,1-3.3,2.9-9.2c-1.9,0.1-3.7,0.4-5.4,0.8c-2,0.5-3.3,1-4,1.6c-0.7,0.6-1,1.2-1,1.8
			c0,0.7,0.4,1.7,1.2,3.2c0.1,0.1,0.1,0.3,0.1,0.4c0,0.3-0.1,0.4-0.4,0.4c-0.2,0-0.4-0.1-0.5-0.3c-0.9-1.3-1.5-2.4-1.8-3.1
			c-0.2-0.5-0.3-1.3-0.4-2.2c-0.1-1.4,1-2.5,3.5-3.2c3.2-0.9,6.5-1.5,9.8-1.8c0.4-0.8,0.7-1.1,0.8-1.1c0.3,0,0.7,0.3,1.4,0.9
			c0.3,0,1.3-0.1,2.8-0.4c0.3,0,0.6-0.3,0.8-0.6c0.3-0.3,0.9-0.5,1.8-0.6c0.5,0,0.9,0.2,1.1,0.6C192.9,231.6,193,232.1,193.3,233z"
			/>
		<path id="XMLID_83_" class="st0" d="M216.6,233.2c0.2,0.2,0.2,0.4,0.2,0.6c0,0.6-0.7,1.9-2.1,3.9c-0.3,0.8-1.3,3.8-2.8,8.8
			c-1.5,4.9-2.6,8.4-3.4,10.3c-0.5,1.3-0.9,2.1-1.3,2.5c-0.4,0.6-0.9,0.9-1.4,0.9c-0.8,0-2.3-0.8-4.6-2.4c-0.3-0.2-0.4-0.4-0.4-0.5
			c0-0.3,0.2-0.4,0.6-0.4c0.1,0,0.3,0,0.4,0.1c1.2,0.5,2,0.7,2.3,0.7c0.7,0,1.2-0.5,1.7-1.4c2.2-3.9,4.1-8.8,5.7-14.7
			c-2.2,3.9-4.7,7.2-7.3,9.9c-0.7,0.7-1.3,1.1-1.7,1.1c-0.4,0-0.8-0.3-1.3-0.8c-1.3-0.8-2.1-1.4-2.4-1.7c-0.4-0.5-0.6-1.4-0.5-2.7
			c0.1-2.5,1.3-6.7,3.6-12.3c-2.8,1-4.9,2.1-6.2,3.1c-0.6,0.5-0.9,0.9-0.9,1.4c0,0,0.2,0.7,0.6,1.9c0,0.1,0,0.1,0,0.2
			c0,0.2-0.1,0.3-0.3,0.3c-0.3,0-0.6-0.2-0.9-0.6c-1.1-1.7-1.6-2.9-1.6-3.6c0-0.9,0.6-1.6,1.9-2c2.3-0.7,5.1-1.7,8.6-2.8
			c0.5-0.9,1-1.4,1.5-1.4c0.5,0,1.2,0.4,2.2,1.3c0.2,0.1,0.2,0.3,0.2,0.4c0,0.3-0.5,0.5-1.6,0.8c-1.4,2-2.6,4.5-3.6,7.7
			c-0.8,2.8-1.3,5-1.3,6.7c0,1.7,0.5,2.5,1.4,2.5c0.4,0,0.9-0.2,1.3-0.7c4.2-4.2,7.8-9.5,10.9-15.9c0.3-1.2,0.7-1.8,1.2-1.8
			C215.6,232.3,216.1,232.6,216.6,233.2z"/>
	</g>
	<polygon id="XMLID_76_" class="st0" points="59.7,160.7 4.2,101.7 59.7,128.1 18.9,62.8 82.5,111.7 65.4,34.1 110.3,97.4 129,6.3 
		128.4,160.7 	"/>
	<polygon id="XMLID_75_" class="st0" points="215.3,160.7 270.8,101.7 215.3,128.1 256.1,62.8 192.4,111.7 209.6,34.1 164.7,97.4 
		145.9,6.3 146.6,160.7 	"/>
	<polygon id="XMLID_74_" class="st0" points="148.4,25.9 148.4,157.6 214.4,157.6 260.7,109.4 210.7,132.9 248.2,71.6 189.2,117.4 
		205.9,42.9 163.7,102.1 	"/>
	<polygon id="XMLID_73_" class="st0" points="126.9,25.9 126.9,157.6 60.9,157.6 14.7,109.4 64.7,132.9 27.2,71.6 86.2,117.4 
		69.4,42.9 111.7,102.1 	"/>
</g>
<path id="XMLID_4_" class="st0" d="M139.2,292.8c-50.7,0-94.1-7.8-112.3-19c-3.3-2-7.5,0.4-7.5,4.2v10.5c0,21.4,17.4,38.8,38.8,38.8
	h162c21.4,0,38.8-17.4,38.8-38.8v-10.1c0-4-4.4-6.5-7.8-4.4C232.9,285.1,189.6,292.8,139.2,292.8z"/>
<path id="XMLID_8_" class="st0" d="M205.3,166.9H73.2c-29.7,0-53.7,24-53.7,53.7v0c0,3.3,2.7,6.1,6.1,6.1h2.6
	c-2.3-1.5-3.5-2.8-3.5-4c0-7.9,51.3-14.3,114.7-14.3s114.7,6.4,114.7,14.3c0,1.2-1.2,2.6-3.5,4h2.6c3.3,0,6.1-2.7,6.1-6.1v0
	C259,190.9,235,166.9,205.3,166.9z"/>
<g id="XMLID_152_">
	<path id="XMLID_153_" class="st0" d="M92.4,233.1c0,0.1,0,0.2,0,0.3c0,0.3-0.2,0.6-0.6,0.7c0,0-0.4,0.1-1.2,0.2
		c-1.8,0.3-4,0.5-6.7,0.7c-0.7,1.5-1.7,4.5-3,9.1c2.2-0.2,4.5-0.3,6.7-0.4c0.7,0,1.1,0.2,1.4,0.7c0,0.1,0.1,0.5,0.3,1.2
		c0,0.1,0,0.2,0,0.2c0,0.4-0.5,0.7-1.4,0.8c-0.7,0.1-1,0.2-1.2,0.2c-0.2,0-0.4-0.1-0.5-0.3c-0.2-0.3-0.5-0.5-0.9-0.5
		c-2.6,0-4.2,0-5,0.1c-0.4,1.1-1.2,4-2.2,8.7c-0.2,0.9-0.5,1.3-0.9,1.3c-0.2,0-0.8-0.1-1.5-0.4c-0.5-0.2-0.6-0.7-0.5-1.5
		c0.2-1.1,0.4-2.2,0.7-3.3c0.1-0.5,0.6-0.7,1.4-0.5c0.3-0.6,0.6-1.6,1-2.9c-0.5-1.3-0.7-1.9-0.7-2c0-0.1,0-0.1,0-0.2
		c0.1-0.4,0.7-0.7,1.7-0.9c0.1-0.2,1-3.3,2.9-9.2c-1.9,0.1-3.7,0.4-5.4,0.8c-2,0.5-3.3,1-4,1.6c-0.7,0.6-1,1.2-1,1.8
		c0,0.7,0.4,1.7,1.2,3.2c0.1,0.1,0.1,0.3,0.1,0.4c0,0.3-0.1,0.4-0.4,0.4c-0.2,0-0.4-0.1-0.5-0.3c-0.9-1.3-1.5-2.4-1.8-3.1
		c-0.2-0.5-0.3-1.3-0.4-2.2c-0.1-1.4,1-2.5,3.5-3.2c3.2-0.9,6.5-1.5,9.8-1.8c0.4-0.8,0.7-1.1,0.8-1.1c0.3,0,0.7,0.3,1.4,0.9
		c0.3,0,1.3-0.1,2.8-0.4c0.3,0,0.6-0.3,0.8-0.6c0.3-0.3,0.9-0.5,1.8-0.6c0.5,0,0.9,0.2,1.1,0.6C92.1,231.8,92.2,232.3,92.4,233.1z"
		/>
	<path id="XMLID_155_" class="st0" d="M111.6,235.5c-0.4,3.7-1.6,7.6-3.6,11.9c-2.6,5.6-5.5,8.5-8.7,8.7c-0.6,0-1.2,0-1.7-0.1
		c-0.6-0.1-0.9-0.3-0.8-0.5c-1.9-0.5-3.3-1-4-1.6c-1-0.9-1.5-2.2-1.4-4c0.1-3.4,1.1-7,3-10.9c1.5-3.1,3-5.3,4.4-6.6
		c0.6-0.6,1.1-0.8,1.7-0.8s1,0.1,1.5,0.4c0.2,0.1,0.9,0.6,2,1.3c0.9-1,1.7-1.7,2.3-2.2c0.4-0.3,0.8-0.4,1.2-0.4c0.7,0,1.3,0.3,1.9,1
		c1,0.1,1.6,0.2,1.9,0.4c0.3,0.2,0.5,0.7,0.5,1.4C111.7,233.9,111.7,234.6,111.6,235.5z M109.2,234c0.1-0.9-0.1-1.3-0.6-1.3
		c-0.4,0-0.9,0.3-1.7,0.8c-1.7,1.2-3.7,2.9-6.1,5.1c-0.3,0.3-0.5,0.4-0.7,0.4c-0.2,0-0.3-0.1-0.3-0.3c0-0.2,0.1-0.4,0.3-0.7
		c1-1.6,2.1-3,3.1-4.1c-0.6-0.5-1.2-0.7-1.6-0.7c-0.3,0-0.6,0.1-0.8,0.3c-1.3,0.9-2.8,3.1-4.4,6.3c-2,3.9-2.9,7.2-2.7,10.1
		c0.1,1.2,0.3,2.1,0.7,2.7c0.4,0.5,1,1,1.9,1.5c0.7,0.4,1.4,0.5,2.1,0.4c2.4-0.3,4.8-2.7,7.1-7.3C107.6,242.8,108.9,238.4,109.2,234
		z"/>
	<path id="XMLID_158_" class="st0" d="M132.5,235.5c-0.4,3.7-1.6,7.6-3.6,11.9c-2.6,5.6-5.5,8.5-8.7,8.7c-0.6,0-1.2,0-1.7-0.1
		c-0.6-0.1-0.9-0.3-0.8-0.5c-1.9-0.5-3.3-1-4-1.6c-1-0.9-1.5-2.2-1.4-4c0.1-3.4,1.1-7,3-10.9c1.5-3.1,3-5.3,4.4-6.6
		c0.6-0.6,1.1-0.8,1.7-0.8s1,0.1,1.5,0.4c0.2,0.1,0.9,0.6,2,1.3c0.9-1,1.7-1.7,2.3-2.2c0.4-0.3,0.8-0.4,1.2-0.4c0.7,0,1.3,0.3,1.9,1
		c1,0.1,1.6,0.2,1.9,0.4c0.3,0.2,0.5,0.7,0.5,1.4C132.7,233.9,132.7,234.6,132.5,235.5z M130.2,234c0.1-0.9-0.1-1.3-0.6-1.3
		c-0.4,0-0.9,0.3-1.7,0.8c-1.7,1.2-3.7,2.9-6.1,5.1c-0.3,0.3-0.5,0.4-0.7,0.4c-0.2,0-0.3-0.1-0.3-0.3c0-0.2,0.1-0.4,0.3-0.7
		c1-1.6,2.1-3,3.1-4.1c-0.6-0.5-1.2-0.7-1.6-0.7c-0.3,0-0.6,0.1-0.8,0.3c-1.3,0.9-2.8,3.1-4.4,6.3c-2,3.9-2.9,7.2-2.7,10.1
		c0.1,1.2,0.3,2.1,0.7,2.7c0.4,0.5,1,1,1.9,1.5c0.7,0.4,1.4,0.5,2.1,0.4c2.4-0.3,4.8-2.7,7.1-7.3C128.6,242.8,129.9,238.4,130.2,234
		z"/>
	<path id="XMLID_161_" class="st0" d="M155.3,236.7c-0.4,2.7-1.2,5.7-2.6,8.8c-1.3,2.9-2.7,5.3-4.2,7.4s-2.8,3.1-3.7,3.1
		c-1.2,0-2.8-0.7-5-2.2c-0.2-0.1-0.2-0.3-0.2-0.4c0-0.4,0.2-0.6,0.7-0.6c0.1,0,0.2,0,0.4,0.1c0.9,0.6,1.9,0.9,2.9,0.9
		c1.5,0.1,3.3-2.1,5.6-6.5c2.3-4.3,3.6-8.2,3.9-11.5c0.1-1.1-0.5-1.9-1.8-2.4c-0.3-0.1-0.6-0.2-0.8-0.1c-2.3,0.3-4.4,1.1-6.6,2.5
		c-1.1,2.6-2.2,5.7-3.3,9.3c-1.2,3.9-2.1,7.3-2.7,10.2c-0.1,0.6-0.4,0.9-0.7,0.9c-0.1,0-0.3,0-0.5-0.1c-0.6-0.3-1-0.6-1.2-0.8
		c-0.3-0.3-0.4-0.6-0.4-1.1c0-1,0.2-2.2,0.5-3.5c0.1-0.3,0.2-0.5,0.4-0.5c0.2,0,0.6,0.3,1.2,0.8c1.6-5.4,3.1-10.1,4.5-13.9
		c-2.6,1.6-4.6,3.2-6,4.7c-0.3,0.4-0.5,0.8-0.5,1.3c0,0.4,0.1,0.9,0.4,1.5s0.4,0.9,0.4,0.9c0,0.2-0.1,0.3-0.4,0.3
		c-0.2,0-0.4-0.1-0.5-0.2c-1.5-1.7-2.2-2.9-2.2-3.6c0-0.7,0.5-1.5,1.4-2.3c2-1.8,4.9-3.8,8.6-5.9c0.6-1.5,1.1-2.2,1.4-2.2
		c0.2,0,0.6,0.3,1.3,0.9c0.6-0.3,1.3-0.6,1.9-0.9c0.5-0.2,1-0.4,1.3-0.4c0.6,0,1.3,0.3,2.3,0.9c0,0,0.1-0.1,0.2-0.1
		c0.7,0,1.7,0.6,3,1.8c0.7,0.7,1.1,1.4,1.1,2.2C155.3,236.3,155.3,236.5,155.3,236.7z"/>
	<path id="XMLID_163_" class="st0" d="M169.5,237.6c-0.4,3.4-1.5,7.2-3.2,11.4c-2.1,4.9-4,7.4-6,7.4c-1.2,0-2.6-0.6-4.2-1.9
		c-0.1-0.1-0.2-0.2-0.2-0.4c0-0.4,0.2-0.6,0.6-0.6c0.1,0,0.2,0,0.3,0.1c1,0.5,1.9,0.8,2.6,0.8c1.6,0,3.3-2.3,5.2-6.9
		c1.8-4.5,2.8-8.6,2.9-12.1c0-1.2-0.5-1.7-1.7-1.7c-0.2,0-0.4,0-0.6,0.1c-0.9,0.1-2,0.9-3.1,2.2c-1.3,1.5-2.2,3.2-2.7,5
		c-0.1,0.2-0.1,0.5-0.1,0.7c0,0.4,0.1,0.8,0.4,1.2c0.3,0.3,0.5,0.5,0.8,0.8c0.1,0.1,0.2,0.2,0.2,0.4c0,0.2-0.2,0.3-0.5,0.3
		c-0.1,0-0.3,0-0.4-0.1c-1-0.6-1.7-1.1-2.1-1.5c-0.4-0.5-0.7-1-0.7-1.6c0-0.6,0.2-1.3,0.6-2.3c0.6-1.4,1.5-2.8,2.7-4.2
		c1.1-1.3,2.2-2.1,3.1-2.5c0.4-0.2,1.3-0.1,2.6,0.3c0.1-0.1,0.2-0.2,0.4-0.2c0.5,0,1.4,0.4,2.7,1.3
		C169.6,234,169.8,235.4,169.5,237.6z"/>
	<path id="XMLID_165_" class="st0" d="M193.9,233.1c0,0.1,0,0.2,0,0.3c0,0.3-0.2,0.6-0.6,0.7c0,0-0.4,0.1-1.2,0.2
		c-1.8,0.3-4,0.5-6.7,0.7c-0.7,1.5-1.7,4.5-3,9.1c2.2-0.2,4.5-0.3,6.7-0.4c0.7,0,1.1,0.2,1.4,0.7c0,0.1,0.1,0.5,0.3,1.2
		c0,0.1,0,0.2,0,0.2c0,0.4-0.5,0.7-1.4,0.8c-0.7,0.1-1,0.2-1.2,0.2c-0.2,0-0.4-0.1-0.5-0.3c-0.2-0.3-0.5-0.5-0.9-0.5
		c-2.6,0-4.2,0-5,0.1c-0.4,1.1-1.2,4-2.2,8.7c-0.2,0.9-0.5,1.3-0.9,1.3c-0.2,0-0.8-0.1-1.5-0.4c-0.5-0.2-0.6-0.7-0.5-1.5
		c0.2-1.1,0.4-2.2,0.7-3.3c0.1-0.5,0.6-0.7,1.4-0.5c0.3-0.6,0.6-1.6,1-2.9c-0.5-1.3-0.7-1.9-0.7-2c0-0.1,0-0.1,0-0.2
		c0.1-0.4,0.7-0.7,1.7-0.9c0.1-0.2,1-3.3,2.9-9.2c-1.9,0.1-3.7,0.4-5.4,0.8c-2,0.5-3.3,1-4,1.6c-0.7,0.6-1,1.2-1,1.8
		c0,0.7,0.4,1.7,1.2,3.2c0.1,0.1,0.1,0.3,0.1,0.4c0,0.3-0.1,0.4-0.4,0.4c-0.2,0-0.4-0.1-0.5-0.3c-0.9-1.3-1.5-2.4-1.8-3.1
		c-0.2-0.5-0.3-1.3-0.4-2.2c-0.1-1.4,1-2.5,3.5-3.2c3.2-0.9,6.5-1.5,9.8-1.8c0.4-0.8,0.7-1.1,0.8-1.1c0.3,0,0.7,0.3,1.4,0.9
		c0.3,0,1.3-0.1,2.8-0.4c0.3,0,0.6-0.3,0.8-0.6c0.3-0.3,0.9-0.5,1.8-0.6c0.5,0,0.9,0.2,1.1,0.6C193.6,231.8,193.7,232.3,193.9,233.1
		z"/>
	<path id="XMLID_167_" class="st0" d="M217.2,233.4c0.2,0.2,0.2,0.4,0.2,0.6c0,0.6-0.7,1.9-2.1,3.9c-0.3,0.8-1.3,3.8-2.8,8.8
		c-1.5,4.9-2.6,8.4-3.4,10.3c-0.5,1.3-0.9,2.1-1.3,2.5c-0.4,0.6-0.9,0.9-1.4,0.9c-0.8,0-2.3-0.8-4.6-2.4c-0.3-0.2-0.4-0.4-0.4-0.5
		c0-0.3,0.2-0.4,0.6-0.4c0.1,0,0.3,0,0.4,0.1c1.2,0.5,2,0.7,2.3,0.7c0.7,0,1.2-0.5,1.7-1.4c2.2-3.9,4.1-8.8,5.7-14.7
		c-2.2,3.9-4.7,7.2-7.3,9.9c-0.7,0.7-1.3,1.1-1.7,1.1c-0.4,0-0.8-0.3-1.3-0.8c-1.3-0.8-2.1-1.4-2.4-1.7c-0.4-0.5-0.6-1.4-0.5-2.7
		c0.1-2.5,1.3-6.7,3.6-12.3c-2.8,1-4.9,2.1-6.2,3.1c-0.6,0.5-0.9,0.9-0.9,1.4c0,0,0.2,0.7,0.6,1.9c0,0.1,0,0.1,0,0.2
		c0,0.2-0.1,0.3-0.3,0.3c-0.3,0-0.6-0.2-0.9-0.6c-1.1-1.7-1.6-2.9-1.6-3.6c0-0.9,0.6-1.6,1.9-2c2.3-0.7,5.1-1.7,8.6-2.8
		c0.5-0.9,1-1.4,1.5-1.4c0.5,0,1.2,0.4,2.2,1.3c0.2,0.1,0.2,0.3,0.2,0.4c0,0.3-0.5,0.5-1.6,0.8c-1.4,2-2.6,4.5-3.6,7.7
		c-0.8,2.8-1.3,5-1.3,6.7c0,1.7,0.5,2.5,1.4,2.5c0.4,0,0.9-0.2,1.3-0.7c4.2-4.2,7.8-9.5,10.9-15.9c0.3-1.2,0.7-1.8,1.2-1.8
		C216.3,232.5,216.7,232.8,217.2,233.4z"/>
</g>
<g id="XMLID_118_">
	<path id="XMLID_119_" class="st0" d="M92.4,233.1c0,0.1,0,0.2,0,0.3c0,0.3-0.2,0.6-0.6,0.7c0,0-0.4,0.1-1.2,0.2
		c-1.8,0.3-4,0.5-6.7,0.7c-0.7,1.5-1.7,4.5-3,9.1c2.2-0.2,4.5-0.3,6.7-0.4c0.7,0,1.1,0.2,1.4,0.7c0,0.1,0.1,0.5,0.3,1.2
		c0,0.1,0,0.2,0,0.2c0,0.4-0.5,0.7-1.4,0.8c-0.7,0.1-1,0.2-1.2,0.2c-0.2,0-0.4-0.1-0.5-0.3c-0.2-0.3-0.5-0.5-0.9-0.5
		c-2.6,0-4.2,0-5,0.1c-0.4,1.1-1.2,4-2.2,8.7c-0.2,0.9-0.5,1.3-0.9,1.3c-0.2,0-0.8-0.1-1.5-0.4c-0.5-0.2-0.6-0.7-0.5-1.5
		c0.2-1.1,0.4-2.2,0.7-3.3c0.1-0.5,0.6-0.7,1.4-0.5c0.3-0.6,0.6-1.6,1-2.9c-0.5-1.3-0.7-1.9-0.7-2c0-0.1,0-0.1,0-0.2
		c0.1-0.4,0.7-0.7,1.7-0.9c0.1-0.2,1-3.3,2.9-9.2c-1.9,0.1-3.7,0.4-5.4,0.8c-2,0.5-3.3,1-4,1.6c-0.7,0.6-1,1.2-1,1.8
		c0,0.7,0.4,1.7,1.2,3.2c0.1,0.1,0.1,0.3,0.1,0.4c0,0.3-0.1,0.4-0.4,0.4c-0.2,0-0.4-0.1-0.5-0.3c-0.9-1.3-1.5-2.4-1.8-3.1
		c-0.2-0.5-0.3-1.3-0.4-2.2c-0.1-1.4,1-2.5,3.5-3.2c3.2-0.9,6.5-1.5,9.8-1.8c0.4-0.8,0.7-1.1,0.8-1.1c0.3,0,0.7,0.3,1.4,0.9
		c0.3,0,1.3-0.1,2.8-0.4c0.3,0,0.6-0.3,0.8-0.6c0.3-0.3,0.9-0.5,1.8-0.6c0.5,0,0.9,0.2,1.1,0.6C92.1,231.8,92.2,232.3,92.4,233.1z"
		/>
	<path id="XMLID_121_" class="st0" d="M111.6,235.5c-0.4,3.7-1.6,7.6-3.6,11.9c-2.6,5.6-5.5,8.5-8.7,8.7c-0.6,0-1.2,0-1.7-0.1
		c-0.6-0.1-0.9-0.3-0.8-0.5c-1.9-0.5-3.3-1-4-1.6c-1-0.9-1.5-2.2-1.4-4c0.1-3.4,1.1-7,3-10.9c1.5-3.1,3-5.3,4.4-6.6
		c0.6-0.6,1.1-0.8,1.7-0.8s1,0.1,1.5,0.4c0.2,0.1,0.9,0.6,2,1.3c0.9-1,1.7-1.7,2.3-2.2c0.4-0.3,0.8-0.4,1.2-0.4c0.7,0,1.3,0.3,1.9,1
		c1,0.1,1.6,0.2,1.9,0.4c0.3,0.2,0.5,0.7,0.5,1.4C111.7,233.9,111.7,234.6,111.6,235.5z M109.2,234c0.1-0.9-0.1-1.3-0.6-1.3
		c-0.4,0-0.9,0.3-1.7,0.8c-1.7,1.2-3.7,2.9-6.1,5.1c-0.3,0.3-0.5,0.4-0.7,0.4c-0.2,0-0.3-0.1-0.3-0.3c0-0.2,0.1-0.4,0.3-0.7
		c1-1.6,2.1-3,3.1-4.1c-0.6-0.5-1.2-0.7-1.6-0.7c-0.3,0-0.6,0.1-0.8,0.3c-1.3,0.9-2.8,3.1-4.4,6.3c-2,3.9-2.9,7.2-2.7,10.1
		c0.1,1.2,0.3,2.1,0.7,2.7c0.4,0.5,1,1,1.9,1.5c0.7,0.4,1.4,0.5,2.1,0.4c2.4-0.3,4.8-2.7,7.1-7.3C107.6,242.8,108.9,238.4,109.2,234
		z"/>
	<path id="XMLID_124_" class="st0" d="M132.5,235.5c-0.4,3.7-1.6,7.6-3.6,11.9c-2.6,5.6-5.5,8.5-8.7,8.7c-0.6,0-1.2,0-1.7-0.1
		c-0.6-0.1-0.9-0.3-0.8-0.5c-1.9-0.5-3.3-1-4-1.6c-1-0.9-1.5-2.2-1.4-4c0.1-3.4,1.1-7,3-10.9c1.5-3.1,3-5.3,4.4-6.6
		c0.6-0.6,1.1-0.8,1.7-0.8s1,0.1,1.5,0.4c0.2,0.1,0.9,0.6,2,1.3c0.9-1,1.7-1.7,2.3-2.2c0.4-0.3,0.8-0.4,1.2-0.4c0.7,0,1.3,0.3,1.9,1
		c1,0.1,1.6,0.2,1.9,0.4c0.3,0.2,0.5,0.7,0.5,1.4C132.7,233.9,132.7,234.6,132.5,235.5z M130.2,234c0.1-0.9-0.1-1.3-0.6-1.3
		c-0.4,0-0.9,0.3-1.7,0.8c-1.7,1.2-3.7,2.9-6.1,5.1c-0.3,0.3-0.5,0.4-0.7,0.4c-0.2,0-0.3-0.1-0.3-0.3c0-0.2,0.1-0.4,0.3-0.7
		c1-1.6,2.1-3,3.1-4.1c-0.6-0.5-1.2-0.7-1.6-0.7c-0.3,0-0.6,0.1-0.8,0.3c-1.3,0.9-2.8,3.1-4.4,6.3c-2,3.9-2.9,7.2-2.7,10.1
		c0.1,1.2,0.3,2.1,0.7,2.7c0.4,0.5,1,1,1.9,1.5c0.7,0.4,1.4,0.5,2.1,0.4c2.4-0.3,4.8-2.7,7.1-7.3C128.6,242.8,129.9,238.4,130.2,234
		z"/>
	<path id="XMLID_127_" class="st0" d="M155.3,236.7c-0.4,2.7-1.2,5.7-2.6,8.8c-1.3,2.9-2.7,5.3-4.2,7.4s-2.8,3.1-3.7,3.1
		c-1.2,0-2.8-0.7-5-2.2c-0.2-0.1-0.2-0.3-0.2-0.4c0-0.4,0.2-0.6,0.7-0.6c0.1,0,0.2,0,0.4,0.1c0.9,0.6,1.9,0.9,2.9,0.9
		c1.5,0.1,3.3-2.1,5.6-6.5c2.3-4.3,3.6-8.2,3.9-11.5c0.1-1.1-0.5-1.9-1.8-2.4c-0.3-0.1-0.6-0.2-0.8-0.1c-2.3,0.3-4.4,1.1-6.6,2.5
		c-1.1,2.6-2.2,5.7-3.3,9.3c-1.2,3.9-2.1,7.3-2.7,10.2c-0.1,0.6-0.4,0.9-0.7,0.9c-0.1,0-0.3,0-0.5-0.1c-0.6-0.3-1-0.6-1.2-0.8
		c-0.3-0.3-0.4-0.6-0.4-1.1c0-1,0.2-2.2,0.5-3.5c0.1-0.3,0.2-0.5,0.4-0.5c0.2,0,0.6,0.3,1.2,0.8c1.6-5.4,3.1-10.1,4.5-13.9
		c-2.6,1.6-4.6,3.2-6,4.7c-0.3,0.4-0.5,0.8-0.5,1.3c0,0.4,0.1,0.9,0.4,1.5s0.4,0.9,0.4,0.9c0,0.2-0.1,0.3-0.4,0.3
		c-0.2,0-0.4-0.1-0.5-0.2c-1.5-1.7-2.2-2.9-2.2-3.6c0-0.7,0.5-1.5,1.4-2.3c2-1.8,4.9-3.8,8.6-5.9c0.6-1.5,1.1-2.2,1.4-2.2
		c0.2,0,0.6,0.3,1.3,0.9c0.6-0.3,1.3-0.6,1.9-0.9c0.5-0.2,1-0.4,1.3-0.4c0.6,0,1.3,0.3,2.3,0.9c0,0,0.1-0.1,0.2-0.1
		c0.7,0,1.7,0.6,3,1.8c0.7,0.7,1.1,1.4,1.1,2.2C155.3,236.3,155.3,236.5,155.3,236.7z"/>
	<path id="XMLID_129_" class="st0" d="M169.5,237.6c-0.4,3.4-1.5,7.2-3.2,11.4c-2.1,4.9-4,7.4-6,7.4c-1.2,0-2.6-0.6-4.2-1.9
		c-0.1-0.1-0.2-0.2-0.2-0.4c0-0.4,0.2-0.6,0.6-0.6c0.1,0,0.2,0,0.3,0.1c1,0.5,1.9,0.8,2.6,0.8c1.6,0,3.3-2.3,5.2-6.9
		c1.8-4.5,2.8-8.6,2.9-12.1c0-1.2-0.5-1.7-1.7-1.7c-0.2,0-0.4,0-0.6,0.1c-0.9,0.1-2,0.9-3.1,2.2c-1.3,1.5-2.2,3.2-2.7,5
		c-0.1,0.2-0.1,0.5-0.1,0.7c0,0.4,0.1,0.8,0.4,1.2c0.3,0.3,0.5,0.5,0.8,0.8c0.1,0.1,0.2,0.2,0.2,0.4c0,0.2-0.2,0.3-0.5,0.3
		c-0.1,0-0.3,0-0.4-0.1c-1-0.6-1.7-1.1-2.1-1.5c-0.4-0.5-0.7-1-0.7-1.6c0-0.6,0.2-1.3,0.6-2.3c0.6-1.4,1.5-2.8,2.7-4.2
		c1.1-1.3,2.2-2.1,3.1-2.5c0.4-0.2,1.3-0.1,2.6,0.3c0.1-0.1,0.2-0.2,0.4-0.2c0.5,0,1.4,0.4,2.7,1.3
		C169.6,234,169.8,235.4,169.5,237.6z"/>
	<path id="XMLID_131_" class="st0" d="M193.9,233.1c0,0.1,0,0.2,0,0.3c0,0.3-0.2,0.6-0.6,0.7c0,0-0.4,0.1-1.2,0.2
		c-1.8,0.3-4,0.5-6.7,0.7c-0.7,1.5-1.7,4.5-3,9.1c2.2-0.2,4.5-0.3,6.7-0.4c0.7,0,1.1,0.2,1.4,0.7c0,0.1,0.1,0.5,0.3,1.2
		c0,0.1,0,0.2,0,0.2c0,0.4-0.5,0.7-1.4,0.8c-0.7,0.1-1,0.2-1.2,0.2c-0.2,0-0.4-0.1-0.5-0.3c-0.2-0.3-0.5-0.5-0.9-0.5
		c-2.6,0-4.2,0-5,0.1c-0.4,1.1-1.2,4-2.2,8.7c-0.2,0.9-0.5,1.3-0.9,1.3c-0.2,0-0.8-0.1-1.5-0.4c-0.5-0.2-0.6-0.7-0.5-1.5
		c0.2-1.1,0.4-2.2,0.7-3.3c0.1-0.5,0.6-0.7,1.4-0.5c0.3-0.6,0.6-1.6,1-2.9c-0.5-1.3-0.7-1.9-0.7-2c0-0.1,0-0.1,0-0.2
		c0.1-0.4,0.7-0.7,1.7-0.9c0.1-0.2,1-3.3,2.9-9.2c-1.9,0.1-3.7,0.4-5.4,0.8c-2,0.5-3.3,1-4,1.6c-0.7,0.6-1,1.2-1,1.8
		c0,0.7,0.4,1.7,1.2,3.2c0.1,0.1,0.1,0.3,0.1,0.4c0,0.3-0.1,0.4-0.4,0.4c-0.2,0-0.4-0.1-0.5-0.3c-0.9-1.3-1.5-2.4-1.8-3.1
		c-0.2-0.5-0.3-1.3-0.4-2.2c-0.1-1.4,1-2.5,3.5-3.2c3.2-0.9,6.5-1.5,9.8-1.8c0.4-0.8,0.7-1.1,0.8-1.1c0.3,0,0.7,0.3,1.4,0.9
		c0.3,0,1.3-0.1,2.8-0.4c0.3,0,0.6-0.3,0.8-0.6c0.3-0.3,0.9-0.5,1.8-0.6c0.5,0,0.9,0.2,1.1,0.6C193.6,231.8,193.7,232.3,193.9,233.1
		z"/>
	<path id="XMLID_133_" class="st0" d="M217.2,233.4c0.2,0.2,0.2,0.4,0.2,0.6c0,0.6-0.7,1.9-2.1,3.9c-0.3,0.8-1.3,3.8-2.8,8.8
		c-1.5,4.9-2.6,8.4-3.4,10.3c-0.5,1.3-0.9,2.1-1.3,2.5c-0.4,0.6-0.9,0.9-1.4,0.9c-0.8,0-2.3-0.8-4.6-2.4c-0.3-0.2-0.4-0.4-0.4-0.5
		c0-0.3,0.2-0.4,0.6-0.4c0.1,0,0.3,0,0.4,0.1c1.2,0.5,2,0.7,2.3,0.7c0.7,0,1.2-0.5,1.7-1.4c2.2-3.9,4.1-8.8,5.7-14.7
		c-2.2,3.9-4.7,7.2-7.3,9.9c-0.7,0.7-1.3,1.1-1.7,1.1c-0.4,0-0.8-0.3-1.3-0.8c-1.3-0.8-2.1-1.4-2.4-1.7c-0.4-0.5-0.6-1.4-0.5-2.7
		c0.1-2.5,1.3-6.7,3.6-12.3c-2.8,1-4.9,2.1-6.2,3.1c-0.6,0.5-0.9,0.9-0.9,1.4c0,0,0.2,0.7,0.6,1.9c0,0.1,0,0.1,0,0.2
		c0,0.2-0.1,0.3-0.3,0.3c-0.3,0-0.6-0.2-0.9-0.6c-1.1-1.7-1.6-2.9-1.6-3.6c0-0.9,0.6-1.6,1.9-2c2.3-0.7,5.1-1.7,8.6-2.8
		c0.5-0.9,1-1.4,1.5-1.4c0.5,0,1.2,0.4,2.2,1.3c0.2,0.1,0.2,0.3,0.2,0.4c0,0.3-0.5,0.5-1.6,0.8c-1.4,2-2.6,4.5-3.6,7.7
		c-0.8,2.8-1.3,5-1.3,6.7c0,1.7,0.5,2.5,1.4,2.5c0.4,0,0.9-0.2,1.3-0.7c4.2-4.2,7.8-9.5,10.9-15.9c0.3-1.2,0.7-1.8,1.2-1.8
		C216.3,232.5,216.7,232.8,217.2,233.4z"/>
</g>
<g id="XMLID_5_">
	<path id="XMLID_85_" class="st0" d="M92.4,233.1c0,0.1,0,0.2,0,0.3c0,0.3-0.2,0.6-0.6,0.7c0,0-0.4,0.1-1.2,0.2
		c-1.8,0.3-4,0.5-6.7,0.7c-0.7,1.5-1.7,4.5-3,9.1c2.2-0.2,4.5-0.3,6.7-0.4c0.7,0,1.1,0.2,1.4,0.7c0,0.1,0.1,0.5,0.3,1.2
		c0,0.1,0,0.2,0,0.2c0,0.4-0.5,0.7-1.4,0.8c-0.7,0.1-1,0.2-1.2,0.2c-0.2,0-0.4-0.1-0.5-0.3c-0.2-0.3-0.5-0.5-0.9-0.5
		c-2.6,0-4.2,0-5,0.1c-0.4,1.1-1.2,4-2.2,8.7c-0.2,0.9-0.5,1.3-0.9,1.3c-0.2,0-0.8-0.1-1.5-0.4c-0.5-0.2-0.6-0.7-0.5-1.5
		c0.2-1.1,0.4-2.2,0.7-3.3c0.1-0.5,0.6-0.7,1.4-0.5c0.3-0.6,0.6-1.6,1-2.9c-0.5-1.3-0.7-1.9-0.7-2c0-0.1,0-0.1,0-0.2
		c0.1-0.4,0.7-0.7,1.7-0.9c0.1-0.2,1-3.3,2.9-9.2c-1.9,0.1-3.7,0.4-5.4,0.8c-2,0.5-3.3,1-4,1.6c-0.7,0.6-1,1.2-1,1.8
		c0,0.7,0.4,1.7,1.2,3.2c0.1,0.1,0.1,0.3,0.1,0.4c0,0.3-0.1,0.4-0.4,0.4c-0.2,0-0.4-0.1-0.5-0.3c-0.9-1.3-1.5-2.4-1.8-3.1
		c-0.2-0.5-0.3-1.3-0.4-2.2c-0.1-1.4,1-2.5,3.5-3.2c3.2-0.9,6.5-1.5,9.8-1.8c0.4-0.8,0.7-1.1,0.8-1.1c0.3,0,0.7,0.3,1.4,0.9
		c0.3,0,1.3-0.1,2.8-0.4c0.3,0,0.6-0.3,0.8-0.6c0.3-0.3,0.9-0.5,1.8-0.6c0.5,0,0.9,0.2,1.1,0.6C92.1,231.8,92.2,232.3,92.4,233.1z"
		/>
	<path id="XMLID_87_" class="st0" d="M111.6,235.5c-0.4,3.7-1.6,7.6-3.6,11.9c-2.6,5.6-5.5,8.5-8.7,8.7c-0.6,0-1.2,0-1.7-0.1
		c-0.6-0.1-0.9-0.3-0.8-0.5c-1.9-0.5-3.3-1-4-1.6c-1-0.9-1.5-2.2-1.4-4c0.1-3.4,1.1-7,3-10.9c1.5-3.1,3-5.3,4.4-6.6
		c0.6-0.6,1.1-0.8,1.7-0.8s1,0.1,1.5,0.4c0.2,0.1,0.9,0.6,2,1.3c0.9-1,1.7-1.7,2.3-2.2c0.4-0.3,0.8-0.4,1.2-0.4c0.7,0,1.3,0.3,1.9,1
		c1,0.1,1.6,0.2,1.9,0.4c0.3,0.2,0.5,0.7,0.5,1.4C111.7,233.9,111.7,234.6,111.6,235.5z M109.2,234c0.1-0.9-0.1-1.3-0.6-1.3
		c-0.4,0-0.9,0.3-1.7,0.8c-1.7,1.2-3.7,2.9-6.1,5.1c-0.3,0.3-0.5,0.4-0.7,0.4c-0.2,0-0.3-0.1-0.3-0.3c0-0.2,0.1-0.4,0.3-0.7
		c1-1.6,2.1-3,3.1-4.1c-0.6-0.5-1.2-0.7-1.6-0.7c-0.3,0-0.6,0.1-0.8,0.3c-1.3,0.9-2.8,3.1-4.4,6.3c-2,3.9-2.9,7.2-2.7,10.1
		c0.1,1.2,0.3,2.1,0.7,2.7c0.4,0.5,1,1,1.9,1.5c0.7,0.4,1.4,0.5,2.1,0.4c2.4-0.3,4.8-2.7,7.1-7.3C107.6,242.8,108.9,238.4,109.2,234
		z"/>
	<path id="XMLID_90_" class="st0" d="M132.5,235.5c-0.4,3.7-1.6,7.6-3.6,11.9c-2.6,5.6-5.5,8.5-8.7,8.7c-0.6,0-1.2,0-1.7-0.1
		c-0.6-0.1-0.9-0.3-0.8-0.5c-1.9-0.5-3.3-1-4-1.6c-1-0.9-1.5-2.2-1.4-4c0.1-3.4,1.1-7,3-10.9c1.5-3.1,3-5.3,4.4-6.6
		c0.6-0.6,1.1-0.8,1.7-0.8s1,0.1,1.5,0.4c0.2,0.1,0.9,0.6,2,1.3c0.9-1,1.7-1.7,2.3-2.2c0.4-0.3,0.8-0.4,1.2-0.4c0.7,0,1.3,0.3,1.9,1
		c1,0.1,1.6,0.2,1.9,0.4c0.3,0.2,0.5,0.7,0.5,1.4C132.7,233.9,132.7,234.6,132.5,235.5z M130.2,234c0.1-0.9-0.1-1.3-0.6-1.3
		c-0.4,0-0.9,0.3-1.7,0.8c-1.7,1.2-3.7,2.9-6.1,5.1c-0.3,0.3-0.5,0.4-0.7,0.4c-0.2,0-0.3-0.1-0.3-0.3c0-0.2,0.1-0.4,0.3-0.7
		c1-1.6,2.1-3,3.1-4.1c-0.6-0.5-1.2-0.7-1.6-0.7c-0.3,0-0.6,0.1-0.8,0.3c-1.3,0.9-2.8,3.1-4.4,6.3c-2,3.9-2.9,7.2-2.7,10.1
		c0.1,1.2,0.3,2.1,0.7,2.7c0.4,0.5,1,1,1.9,1.5c0.7,0.4,1.4,0.5,2.1,0.4c2.4-0.3,4.8-2.7,7.1-7.3C128.6,242.8,129.9,238.4,130.2,234
		z"/>
	<path id="XMLID_93_" class="st0" d="M155.3,236.7c-0.4,2.7-1.2,5.7-2.6,8.8c-1.3,2.9-2.7,5.3-4.2,7.4s-2.8,3.1-3.7,3.1
		c-1.2,0-2.8-0.7-5-2.2c-0.2-0.1-0.2-0.3-0.2-0.4c0-0.4,0.2-0.6,0.7-0.6c0.1,0,0.2,0,0.4,0.1c0.9,0.6,1.9,0.9,2.9,0.9
		c1.5,0.1,3.3-2.1,5.6-6.5c2.3-4.3,3.6-8.2,3.9-11.5c0.1-1.1-0.5-1.9-1.8-2.4c-0.3-0.1-0.6-0.2-0.8-0.1c-2.3,0.3-4.4,1.1-6.6,2.5
		c-1.1,2.6-2.2,5.7-3.3,9.3c-1.2,3.9-2.1,7.3-2.7,10.2c-0.1,0.6-0.4,0.9-0.7,0.9c-0.1,0-0.3,0-0.5-0.1c-0.6-0.3-1-0.6-1.2-0.8
		c-0.3-0.3-0.4-0.6-0.4-1.1c0-1,0.2-2.2,0.5-3.5c0.1-0.3,0.2-0.5,0.4-0.5c0.2,0,0.6,0.3,1.2,0.8c1.6-5.4,3.1-10.1,4.5-13.9
		c-2.6,1.6-4.6,3.2-6,4.7c-0.3,0.4-0.5,0.8-0.5,1.3c0,0.4,0.1,0.9,0.4,1.5s0.4,0.9,0.4,0.9c0,0.2-0.1,0.3-0.4,0.3
		c-0.2,0-0.4-0.1-0.5-0.2c-1.5-1.7-2.2-2.9-2.2-3.6c0-0.7,0.5-1.5,1.4-2.3c2-1.8,4.9-3.8,8.6-5.9c0.6-1.5,1.1-2.2,1.4-2.2
		c0.2,0,0.6,0.3,1.3,0.9c0.6-0.3,1.3-0.6,1.9-0.9c0.5-0.2,1-0.4,1.3-0.4c0.6,0,1.3,0.3,2.3,0.9c0,0,0.1-0.1,0.2-0.1
		c0.7,0,1.7,0.6,3,1.8c0.7,0.7,1.1,1.4,1.1,2.2C155.3,236.3,155.3,236.5,155.3,236.7z"/>
	<path id="XMLID_95_" class="st0" d="M169.5,237.6c-0.4,3.4-1.5,7.2-3.2,11.4c-2.1,4.9-4,7.4-6,7.4c-1.2,0-2.6-0.6-4.2-1.9
		c-0.1-0.1-0.2-0.2-0.2-0.4c0-0.4,0.2-0.6,0.6-0.6c0.1,0,0.2,0,0.3,0.1c1,0.5,1.9,0.8,2.6,0.8c1.6,0,3.3-2.3,5.2-6.9
		c1.8-4.5,2.8-8.6,2.9-12.1c0-1.2-0.5-1.7-1.7-1.7c-0.2,0-0.4,0-0.6,0.1c-0.9,0.1-2,0.9-3.1,2.2c-1.3,1.5-2.2,3.2-2.7,5
		c-0.1,0.2-0.1,0.5-0.1,0.7c0,0.4,0.1,0.8,0.4,1.2c0.3,0.3,0.5,0.5,0.8,0.8c0.1,0.1,0.2,0.2,0.2,0.4c0,0.2-0.2,0.3-0.5,0.3
		c-0.1,0-0.3,0-0.4-0.1c-1-0.6-1.7-1.1-2.1-1.5c-0.4-0.5-0.7-1-0.7-1.6c0-0.6,0.2-1.3,0.6-2.3c0.6-1.4,1.5-2.8,2.7-4.2
		c1.1-1.3,2.2-2.1,3.1-2.5c0.4-0.2,1.3-0.1,2.6,0.3c0.1-0.1,0.2-0.2,0.4-0.2c0.5,0,1.4,0.4,2.7,1.3
		C169.6,234,169.8,235.4,169.5,237.6z"/>
	<path id="XMLID_97_" class="st0" d="M193.9,233.1c0,0.1,0,0.2,0,0.3c0,0.3-0.2,0.6-0.6,0.7c0,0-0.4,0.1-1.2,0.2
		c-1.8,0.3-4,0.5-6.7,0.7c-0.7,1.5-1.7,4.5-3,9.1c2.2-0.2,4.5-0.3,6.7-0.4c0.7,0,1.1,0.2,1.4,0.7c0,0.1,0.1,0.5,0.3,1.2
		c0,0.1,0,0.2,0,0.2c0,0.4-0.5,0.7-1.4,0.8c-0.7,0.1-1,0.2-1.2,0.2c-0.2,0-0.4-0.1-0.5-0.3c-0.2-0.3-0.5-0.5-0.9-0.5
		c-2.6,0-4.2,0-5,0.1c-0.4,1.1-1.2,4-2.2,8.7c-0.2,0.9-0.5,1.3-0.9,1.3c-0.2,0-0.8-0.1-1.5-0.4c-0.5-0.2-0.6-0.7-0.5-1.5
		c0.2-1.1,0.4-2.2,0.7-3.3c0.1-0.5,0.6-0.7,1.4-0.5c0.3-0.6,0.6-1.6,1-2.9c-0.5-1.3-0.7-1.9-0.7-2c0-0.1,0-0.1,0-0.2
		c0.1-0.4,0.7-0.7,1.7-0.9c0.1-0.2,1-3.3,2.9-9.2c-1.9,0.1-3.7,0.4-5.4,0.8c-2,0.5-3.3,1-4,1.6c-0.7,0.6-1,1.2-1,1.8
		c0,0.7,0.4,1.7,1.2,3.2c0.1,0.1,0.1,0.3,0.1,0.4c0,0.3-0.1,0.4-0.4,0.4c-0.2,0-0.4-0.1-0.5-0.3c-0.9-1.3-1.5-2.4-1.8-3.1
		c-0.2-0.5-0.3-1.3-0.4-2.2c-0.1-1.4,1-2.5,3.5-3.2c3.2-0.9,6.5-1.5,9.8-1.8c0.4-0.8,0.7-1.1,0.8-1.1c0.3,0,0.7,0.3,1.4,0.9
		c0.3,0,1.3-0.1,2.8-0.4c0.3,0,0.6-0.3,0.8-0.6c0.3-0.3,0.9-0.5,1.8-0.6c0.5,0,0.9,0.2,1.1,0.6C193.6,231.8,193.7,232.3,193.9,233.1
		z"/>
	<path id="XMLID_99_" class="st0" d="M217.2,233.4c0.2,0.2,0.2,0.4,0.2,0.6c0,0.6-0.7,1.9-2.1,3.9c-0.3,0.8-1.3,3.8-2.8,8.8
		c-1.5,4.9-2.6,8.4-3.4,10.3c-0.5,1.3-0.9,2.1-1.3,2.5c-0.4,0.6-0.9,0.9-1.4,0.9c-0.8,0-2.3-0.8-4.6-2.4c-0.3-0.2-0.4-0.4-0.4-0.5
		c0-0.3,0.2-0.4,0.6-0.4c0.1,0,0.3,0,0.4,0.1c1.2,0.5,2,0.7,2.3,0.7c0.7,0,1.2-0.5,1.7-1.4c2.2-3.9,4.1-8.8,5.7-14.7
		c-2.2,3.9-4.7,7.2-7.3,9.9c-0.7,0.7-1.3,1.1-1.7,1.1c-0.4,0-0.8-0.3-1.3-0.8c-1.3-0.8-2.1-1.4-2.4-1.7c-0.4-0.5-0.6-1.4-0.5-2.7
		c0.1-2.5,1.3-6.7,3.6-12.3c-2.8,1-4.9,2.1-6.2,3.1c-0.6,0.5-0.9,0.9-0.9,1.4c0,0,0.2,0.7,0.6,1.9c0,0.1,0,0.1,0,0.2
		c0,0.2-0.1,0.3-0.3,0.3c-0.3,0-0.6-0.2-0.9-0.6c-1.1-1.7-1.6-2.9-1.6-3.6c0-0.9,0.6-1.6,1.9-2c2.3-0.7,5.1-1.7,8.6-2.8
		c0.5-0.9,1-1.4,1.5-1.4c0.5,0,1.2,0.4,2.2,1.3c0.2,0.1,0.2,0.3,0.2,0.4c0,0.3-0.5,0.5-1.6,0.8c-1.4,2-2.6,4.5-3.6,7.7
		c-0.8,2.8-1.3,5-1.3,6.7c0,1.7,0.5,2.5,1.4,2.5c0.4,0,0.9-0.2,1.3-0.7c4.2-4.2,7.8-9.5,10.9-15.9c0.3-1.2,0.7-1.8,1.2-1.8
		C216.3,232.5,216.7,232.8,217.2,233.4z"/>
</g>
<polygon id="XMLID_6_" class="st0" points="60.4,160.9 4.9,101.9 60.4,128.2 19.6,63 83.2,111.9 66.1,34.2 111,97.6 129.7,6.5 
	129.1,160.9 "/>
<polygon id="XMLID_1_" class="st0" points="216,160.9 271.4,101.9 216,128.2 256.8,63 193.1,111.9 210.2,34.2 165.4,97.6 146.6,6.5 
	147.2,160.9 "/>
<polygon id="XMLID_3_" class="st0" points="149.1,26 149.1,157.8 215.1,157.8 261.3,109.5 211.3,133 248.8,71.8 189.8,117.5 
	206.6,43 164.3,102.3 "/>
<polygon id="XMLID_2_" class="st0" points="127.6,26 127.6,157.8 61.6,157.8 15.3,109.5 65.3,133 27.8,71.8 86.8,117.5 70.1,43 
	112.3,102.3 "/>
</svg>
