<svg xmlns="http://www.w3.org/2000/svg" width="32.824" height="29.289" viewBox="0 0 32.824 29.289">
  <g id="share-option" transform="translate(-131 103.2)">
    <path id="Path_334" data-name="Path 334" d="M131-92.654a1.125,1.125,0,0,0,.346.821l9.378,9.378a1.129,1.129,0,0,0,.827.346,1.126,1.126,0,0,0,.821-.346,1.125,1.125,0,0,0,.346-.821v-4.689h4.105c1.2,0,2.271.038,3.214.109a23.327,23.327,0,0,1,2.822.391,10.473,10.473,0,0,1,2.438.776,8.586,8.586,0,0,1,1.931,1.27,6.426,6.426,0,0,1,1.463,1.847,9.851,9.851,0,0,1,.885,2.534,15.72,15.72,0,0,1,.321,3.316c0,.674-.032,1.424-.09,2.252a3.391,3.391,0,0,1-.045.43,3.462,3.462,0,0,0-.045.488.687.687,0,0,0,.154.455.539.539,0,0,0,.43.186.626.626,0,0,0,.513-.314,1.976,1.976,0,0,0,.237-.4c.071-.16.154-.34.25-.552s.154-.353.192-.436q2.329-5.215,2.329-8.262a16.663,16.663,0,0,0-.969-6.1q-2.973-7.351-16.03-7.364H142.72v-4.689a1.125,1.125,0,0,0-.346-.821,1.126,1.126,0,0,0-.821-.346,1.126,1.126,0,0,0-.821.346l-9.385,9.378A1.126,1.126,0,0,0,131-92.654Z" fill="#fff"/>
  </g>
</svg>
